<svg width="283" height="102" viewBox="0 0 283 102" fill="none" xmlns="http://www.w3.org/2000/svg">
<path d="M38.96 63.76L40.2839 65.2591L40.2893 65.2543L40.2947 65.2495L38.96 63.76ZM10.72 65.36L9.57308 66.9985L9.58098 67.004L9.58894 67.0095L10.72 65.36ZM2.72 54.88L2.1963 52.9498L0.0929595 53.5205L0.841754 55.5672L2.72 54.88ZM13.04 52.08L14.8939 51.3296L14.2283 49.6853L12.5163 50.1498L13.04 52.08ZM17.28 57.36L16.1706 59.0241H16.1706L17.28 57.36ZM31.28 56.64L29.9881 55.1132L29.9682 55.1301L29.9488 55.1474L31.28 56.64ZM30.96 43.28L29.6833 44.8195L29.7013 44.8344L29.7195 44.8488L30.96 43.28ZM6.96 40.56L4.97009 40.3593L4.74818 42.56H6.96V40.56ZM9.84 12V10H8.03154L7.85009 11.7993L9.84 12ZM40.32 12H42.32V10H40.32V12ZM40.32 21.52V23.52H42.32V21.52H40.32ZM18.4 21.52V19.52H16.5749L16.4083 21.3374L18.4 21.52ZM17.52 31.12L15.5284 30.9374L15.3283 33.12H17.52V31.12ZM38.8 36.56L37.4953 38.0758L37.5008 38.0806L37.5064 38.0853L38.8 36.56ZM43.12 50.16C43.12 54.963 41.32 58.9597 37.6253 62.2705L40.2947 65.2495C44.8133 61.2003 47.12 56.1303 47.12 50.16H43.12ZM37.6361 62.2609C33.9359 65.5286 29.33 67.2 23.68 67.2V71.2C30.19 71.2 35.7708 69.2447 40.2839 65.2591L37.6361 62.2609ZM23.68 67.2C19.1415 67.2 15.2232 66.0229 11.8511 63.7105L9.58894 67.0095C13.6834 69.8171 18.4051 71.2 23.68 71.2V67.2ZM11.8669 63.7215C8.47674 61.3484 6.06087 58.1907 4.59825 54.1928L0.841754 55.5672C2.57913 60.316 5.4966 64.1449 9.57308 66.9985L11.8669 63.7215ZM3.2437 56.8102L13.5637 54.0102L12.5163 50.1498L2.1963 52.9498L3.2437 56.8102ZM11.1861 52.8304C12.236 55.4242 13.9 57.5103 16.1706 59.0241L18.3894 55.6959C16.82 54.6497 15.6573 53.2158 14.8939 51.3296L11.1861 52.8304ZM16.1706 59.0241C18.4328 60.5322 20.9819 61.28 23.76 61.28V57.28C21.7381 57.28 19.9672 56.7478 18.3894 55.6959L16.1706 59.0241ZM23.76 61.28C27.2126 61.28 30.2169 60.268 32.6112 58.1326L29.9488 55.1474C28.3964 56.532 26.3874 57.28 23.76 57.28V61.28ZM32.5719 58.1668C35.0681 56.0546 36.4 53.3501 36.4 50.16H32.4C32.4 52.0899 31.652 53.7054 29.9881 55.1132L32.5719 58.1668ZM36.4 50.16C36.4 46.7378 34.9435 43.88 32.2005 41.7112L29.7195 44.8488C31.5632 46.3066 32.4 48.0356 32.4 50.16H36.4ZM32.2367 41.7405C29.6224 39.5725 26.3417 38.56 22.56 38.56V42.56C25.605 42.56 27.9243 43.3608 29.6833 44.8195L32.2367 41.7405ZM22.56 38.56H6.96V42.56H22.56V38.56ZM8.94991 40.7607L11.8299 12.2007L7.85009 11.7993L4.97009 40.3593L8.94991 40.7607ZM9.84 14H40.32V10H9.84V14ZM38.32 12V21.52H42.32V12H38.32ZM40.32 19.52H18.4V23.52H40.32V19.52ZM16.4083 21.3374L15.5284 30.9374L19.5117 31.3026L20.3916 21.7026L16.4083 21.3374ZM17.52 33.12H23.12V29.12H17.52V33.12ZM23.12 33.12C28.9438 33.12 33.6897 34.8001 37.4953 38.0758L40.1047 35.0442C35.4837 31.0666 29.7762 29.12 23.12 29.12V33.12ZM37.5064 38.0853C41.2746 41.2811 43.12 45.258 43.12 50.16H47.12C47.12 44.0753 44.7521 38.9855 40.0936 35.0347L37.5064 38.0853ZM57.8031 16.56L56.4465 15.0904L56.4371 15.0992L57.8031 16.56ZM88.7631 16.56L87.3971 18.0209L87.4066 18.0296L88.7631 16.56ZM88.7631 63.44L87.4065 61.9704L87.3971 61.9792L88.7631 63.44ZM57.8031 63.44L56.4371 64.9009L56.4466 64.9096L57.8031 63.44ZM65.2431 56.4L63.885 57.8682L63.9041 57.8858L63.9235 57.9029L65.2431 56.4ZM81.4031 56.4L82.7227 57.9029L82.7429 57.8851L82.7627 57.8669L81.4031 56.4ZM81.4031 23.68L80.045 25.1482L80.0641 25.1658L80.0835 25.1829L81.4031 23.68ZM65.2431 23.68L66.5811 25.1666L66.5912 25.1575L66.6012 25.1482L65.2431 23.68ZM53.6431 49.04V30.96H49.6431V49.04H53.6431ZM53.6431 30.96C53.6431 25.7384 55.478 21.4723 59.1691 18.0208L56.4371 15.0992C51.9149 19.3277 49.6431 24.6616 49.6431 30.96H53.6431ZM59.1597 18.0296C62.9146 14.5635 67.5885 12.8 73.3231 12.8V8.8C66.6844 8.8 61.0117 10.8765 56.4466 15.0904L59.1597 18.0296ZM73.3231 12.8C79.0579 12.8 83.6995 14.5633 87.3971 18.0208L90.1291 15.0992C85.6134 10.8767 79.9617 8.8 73.3231 8.8V12.8ZM87.4066 18.0296C91.1484 21.4836 93.0031 25.7471 93.0031 30.96H97.0031C97.0031 24.6529 94.6979 19.3164 90.1197 15.0904L87.4066 18.0296ZM93.0031 30.96V49.04H97.0031V30.96H93.0031ZM93.0031 49.04C93.0031 54.2529 91.1484 58.5164 87.4066 61.9704L90.1197 64.9096C94.6979 60.6836 97.0031 55.3471 97.0031 49.04H93.0031ZM87.3971 61.9792C83.6995 65.4367 79.0579 67.2 73.3231 67.2V71.2C79.9617 71.2 85.6134 69.1233 90.1291 64.9008L87.3971 61.9792ZM73.3231 67.2C67.5885 67.2 62.9146 65.4365 59.1597 61.9704L56.4466 64.9096C61.0117 69.1235 66.6844 71.2 73.3231 71.2V67.2ZM59.1691 61.9792C55.478 58.5277 53.6431 54.2616 53.6431 49.04H49.6431C49.6431 55.3384 51.9149 60.6723 56.4371 64.9008L59.1691 61.9792ZM60.0431 30.8V49.2H64.0431V30.8H60.0431ZM60.0431 49.2C60.0431 52.6016 61.3555 55.5284 63.885 57.8682L66.6012 54.9318C64.8641 53.325 64.0431 51.4517 64.0431 49.2H60.0431ZM63.9235 57.9029C66.5125 60.1761 69.6897 61.28 73.3231 61.28V57.28C70.5566 57.28 68.3471 56.4639 66.5627 54.8971L63.9235 57.9029ZM73.3231 61.28C76.9566 61.28 80.1338 60.1761 82.7227 57.9029L80.0835 54.8971C78.2992 56.4639 76.0897 57.28 73.3231 57.28V61.28ZM82.7627 57.8669C85.3234 55.4935 86.6831 52.5752 86.6831 49.2H82.6831C82.6831 51.3714 81.8562 53.2532 80.0436 54.9331L82.7627 57.8669ZM86.6831 49.2V30.8H82.6831V49.2H86.6831ZM86.6831 30.8C86.6831 27.3787 85.3273 24.4641 82.7227 22.1771L80.0835 25.1829C81.8523 26.7359 82.6831 28.568 82.6831 30.8H86.6831ZM82.7612 22.2118C80.2132 19.8549 77.015 18.72 73.3231 18.72V22.72C76.138 22.72 78.3264 23.5585 80.045 25.1482L82.7612 22.2118ZM73.3231 18.72C69.6313 18.72 66.4331 19.8549 63.885 22.2118L66.6012 25.1482C68.3198 23.5585 70.5083 22.72 73.3231 22.72V18.72ZM63.9052 22.1934C61.3578 24.486 60.0431 27.3965 60.0431 30.8H64.0431C64.0431 28.5502 64.8618 26.714 66.5811 25.1666L63.9052 22.1934ZM108.037 16.56L106.681 15.0904L106.672 15.0992L108.037 16.56ZM138.997 16.56L137.631 18.0209L137.641 18.0296L138.997 16.56ZM138.997 63.44L137.641 61.9704L137.632 61.9792L138.997 63.44ZM108.037 63.44L106.671 64.9009L106.681 64.9096L108.037 63.44ZM115.478 56.4L114.119 57.8682L114.138 57.8858L114.158 57.9029L115.478 56.4ZM131.637 56.4L132.957 57.9029L132.977 57.8851L132.997 57.8669L131.637 56.4ZM131.637 23.68L130.279 25.1482L130.298 25.1658L130.318 25.1829L131.637 23.68ZM115.478 23.68L116.815 25.1666L116.826 25.1575L116.836 25.1482L115.478 23.68ZM103.878 49.04V30.96H99.8775V49.04H103.878ZM103.878 30.96C103.878 25.7384 105.712 21.4723 109.403 18.0208L106.672 15.0992C102.149 19.3277 99.8775 24.6616 99.8775 30.96H103.878ZM109.394 18.0296C113.149 14.5635 117.823 12.8 123.558 12.8V8.8C116.919 8.8 111.246 10.8765 106.681 15.0904L109.394 18.0296ZM123.558 12.8C129.292 12.8 133.934 14.5633 137.632 18.0208L140.363 15.0992C135.848 10.8767 130.196 8.8 123.558 8.8V12.8ZM137.641 18.0296C141.383 21.4836 143.238 25.7471 143.238 30.96H147.238C147.238 24.6529 144.932 19.3164 140.354 15.0904L137.641 18.0296ZM143.238 30.96V49.04H147.238V30.96H143.238ZM143.238 49.04C143.238 54.2529 141.383 58.5164 137.641 61.9704L140.354 64.9096C144.932 60.6836 147.238 55.3471 147.238 49.04H143.238ZM137.632 61.9792C133.934 65.4367 129.292 67.2 123.558 67.2V71.2C130.196 71.2 135.848 69.1233 140.363 64.9008L137.632 61.9792ZM123.558 67.2C117.823 67.2 113.149 65.4365 109.394 61.9704L106.681 64.9096C111.246 69.1235 116.919 71.2 123.558 71.2V67.2ZM109.403 61.9792C105.712 58.5277 103.878 54.2616 103.878 49.04H99.8775C99.8775 55.3384 102.149 60.6723 106.672 64.9008L109.403 61.9792ZM110.278 30.8V49.2H114.278V30.8H110.278ZM110.278 49.2C110.278 52.6016 111.59 55.5284 114.119 57.8682L116.836 54.9318C115.098 53.325 114.278 51.4517 114.278 49.2H110.278ZM114.158 57.9029C116.747 60.1761 119.924 61.28 123.558 61.28V57.28C120.791 57.28 118.581 56.4639 116.797 54.8971L114.158 57.9029ZM123.558 61.28C127.191 61.28 130.368 60.1761 132.957 57.9029L130.318 54.8971C128.534 56.4639 126.324 57.28 123.558 57.28V61.28ZM132.997 57.8669C135.558 55.4935 136.917 52.5752 136.917 49.2H132.917C132.917 51.3714 132.091 53.2532 130.278 54.9331L132.997 57.8669ZM136.917 49.2V30.8H132.917V49.2H136.917ZM136.917 30.8C136.917 27.3787 135.562 24.4641 132.957 22.1771L130.318 25.1829C132.087 26.7359 132.917 28.568 132.917 30.8H136.917ZM132.996 22.2118C130.448 19.8549 127.249 18.72 123.558 18.72V22.72C126.372 22.72 128.561 23.5585 130.279 25.1482L132.996 22.2118ZM123.558 18.72C119.866 18.72 116.667 19.8549 114.119 22.2118L116.836 25.1482C118.554 23.5585 120.743 22.72 123.558 22.72V18.72ZM114.14 22.1934C111.592 24.486 110.278 27.3965 110.278 30.8H114.278C114.278 28.5502 115.096 26.714 116.815 25.1666L114.14 22.1934ZM168.112 44.64H170.112V42.64H168.112V44.64ZM153.392 44.64H151.392V46.64H153.392V44.64ZM153.392 35.52V33.52H151.392V35.52H153.392ZM168.112 35.52V37.52H170.112V35.52H168.112ZM168.112 20.8V18.8H166.112V20.8H168.112ZM177.232 20.8H179.232V18.8H177.232V20.8ZM177.232 35.52H175.232V37.52H177.232V35.52ZM191.952 35.52H193.952V33.52H191.952V35.52ZM191.952 44.64V46.64H193.952V44.64H191.952ZM177.232 44.64V42.64H175.232V44.64H177.232ZM177.232 59.36V61.36H179.232V59.36H177.232ZM168.112 59.36H166.112V61.36H168.112V59.36ZM168.112 42.64H153.392V46.64H168.112V42.64ZM155.392 44.64V35.52H151.392V44.64H155.392ZM153.392 37.52H168.112V33.52H153.392V37.52ZM170.112 35.52V20.8H166.112V35.52H170.112ZM168.112 22.8H177.232V18.8H168.112V22.8ZM175.232 20.8V35.52H179.232V20.8H175.232ZM177.232 37.52H191.952V33.52H177.232V37.52ZM189.952 35.52V44.64H193.952V35.52H189.952ZM191.952 42.64H177.232V46.64H191.952V42.64ZM175.232 44.64V59.36H179.232V44.64H175.232ZM177.232 57.36H168.112V61.36H177.232V57.36ZM170.112 59.36V44.64H166.112V59.36H170.112Z" fill="#261104"/>
<path d="M34.76 98V99H35.76V98H34.76ZM32.28 98H31.28V99H32.28V98ZM32.28 92.62V91.62H31.28V92.62H32.28ZM33.96 92.62V93.62H34.4502L34.7504 93.2326L33.96 92.62ZM34.58 84.6V83.6H33.58V84.6H34.58ZM43.26 84.6H44.26V83.6H43.26V84.6ZM43.26 92.62H42.26V93.62H43.26V92.62ZM45.12 92.62H46.12V91.62H45.12V92.62ZM45.12 98V99H46.12V98H45.12ZM42.64 98H41.64V99H42.64V98ZM42.64 95H43.64V94H42.64V95ZM34.76 95V94H33.76V95H34.76ZM36.52 92.62L35.5925 92.2462L35.0389 93.62H36.52V92.62ZM40.78 92.62V93.62H41.78V92.62H40.78ZM40.78 86.98H41.78V85.98H40.78V86.98ZM37.06 86.98V85.98H36.06V86.98H37.06ZM34.76 97H32.28V99H34.76V97ZM33.28 98V92.62H31.28V98H33.28ZM32.28 93.62H33.96V91.62H32.28V93.62ZM34.7504 93.2326C35.1033 92.7772 35.2952 92.1694 35.4091 91.5374C35.5269 90.884 35.58 90.0927 35.58 89.18H33.58C33.58 90.0273 33.5298 90.6893 33.4409 91.1826C33.3481 91.6973 33.23 91.9295 33.1696 92.0074L34.7504 93.2326ZM35.58 89.18V84.6H33.58V89.18H35.58ZM34.58 85.6H43.26V83.6H34.58V85.6ZM42.26 84.6V92.62H44.26V84.6H42.26ZM43.26 93.62H45.12V91.62H43.26V93.62ZM44.12 92.62V98H46.12V92.62H44.12ZM45.12 97H42.64V99H45.12V97ZM43.64 98V95H41.64V98H43.64ZM42.64 94H34.76V96H42.64V94ZM33.76 95V98H35.76V95H33.76ZM36.52 93.62H40.78V91.62H36.52V93.62ZM41.78 92.62V86.98H39.78V92.62H41.78ZM40.78 85.98H37.06V87.98H40.78V85.98ZM36.06 86.98V89.36H38.06V86.98H36.06ZM36.06 89.36C36.06 90.5517 35.8917 91.5037 35.5925 92.2462L37.4475 92.9938C37.8683 91.9496 38.06 90.7283 38.06 89.36H36.06ZM50.0627 93.74L49.3511 94.4426L49.3577 94.4494L49.3646 94.456L50.0627 93.74ZM50.0627 85.88L49.3556 85.1729L50.0627 85.88ZM57.9427 85.88L57.2355 86.5871L57.2401 86.5916L57.9427 85.88ZM57.9427 93.74L58.6408 94.4561L58.6498 94.4471L57.9427 93.74ZM51.9227 87.66L52.638 88.3587L51.9227 87.66ZM51.9227 91.94L52.638 91.2413L51.9227 91.94ZM56.0827 91.94L55.3673 91.2413L56.0827 91.94ZM50.7743 93.0374C49.9315 92.1839 49.5027 91.1286 49.5027 89.8H47.5027C47.5027 91.618 48.1138 93.1895 49.3511 94.4426L50.7743 93.0374ZM49.5027 89.8C49.5027 88.4714 49.9313 87.4256 50.7698 86.5871L49.3556 85.1729C48.114 86.4144 47.5027 87.9819 47.5027 89.8H49.5027ZM50.7698 86.5871C51.6242 85.7327 52.678 85.3 54.0027 85.3V83.3C52.1807 83.3 50.6078 83.9206 49.3556 85.1729L50.7698 86.5871ZM54.0027 85.3C55.3273 85.3 56.3811 85.7327 57.2355 86.5871L58.6498 85.1729C57.3975 83.9206 55.8246 83.3 54.0027 83.3V85.3ZM57.2401 86.5916C58.0902 87.431 58.5227 88.4754 58.5227 89.8H60.5227C60.5227 87.9779 59.9018 86.409 58.6452 85.1684L57.2401 86.5916ZM58.5227 89.8C58.5227 91.1247 58.09 92.1785 57.2355 93.0329L58.6498 94.4471C59.902 93.1948 60.5227 91.622 60.5227 89.8H58.5227ZM57.2446 93.024C56.3742 93.8726 55.3155 94.3 54.0027 94.3V96.3C55.8098 96.3 57.3778 95.6874 58.6408 94.456L57.2446 93.024ZM54.0027 94.3C52.6898 94.3 51.6311 93.8726 50.7608 93.024L49.3646 94.456C50.6275 95.6874 52.1955 96.3 54.0027 96.3V94.3ZM54.0027 85.8C52.9162 85.8 51.962 86.1886 51.2073 86.9613L52.638 88.3587C53.0033 87.9848 53.4358 87.8 54.0027 87.8V85.8ZM51.2073 86.9613C50.4522 87.7344 50.0827 88.7042 50.0827 89.8H52.0827C52.0827 89.1891 52.2731 88.7323 52.638 88.3587L51.2073 86.9613ZM50.0827 89.8C50.0827 90.8958 50.4522 91.8656 51.2073 92.6387L52.638 91.2413C52.2732 90.8677 52.0827 90.4109 52.0827 89.8H50.0827ZM51.2073 92.6387C51.962 93.4114 52.9162 93.8 54.0027 93.8V91.8C53.4358 91.8 53.0033 91.6152 52.638 91.2413L51.2073 92.6387ZM54.0027 93.8C55.0891 93.8 56.0433 93.4114 56.798 92.6387L55.3673 91.2413C55.002 91.6152 54.5695 91.8 54.0027 91.8V93.8ZM56.798 92.6387C57.5532 91.8656 57.9227 90.8958 57.9227 89.8H55.9227C55.9227 90.4109 55.7322 90.8677 55.3673 91.2413L56.798 92.6387ZM57.9227 89.8C57.9227 88.7042 57.5532 87.7344 56.798 86.9613L55.3673 88.3587C55.7322 88.7323 55.9227 89.1891 55.9227 89.8H57.9227ZM56.798 86.9613C56.0433 86.1886 55.0891 85.8 54.0027 85.8V87.8C54.5695 87.8 55.002 87.9848 55.3673 88.3587L56.798 86.9613ZM63.8459 84.6V83.6H62.8459V84.6H63.8459ZM71.7659 85.34L71.1392 86.1192L71.1461 86.1248L71.1531 86.1302L71.7659 85.34ZM72.8259 87.2L71.8286 87.2725L71.8377 87.3974L71.8773 87.5162L72.8259 87.2ZM71.9259 89.46L71.2698 88.7054L70.2306 89.609L71.4114 90.3175L71.9259 89.46ZM72.3259 94.12L72.9866 94.8708L72.9949 94.8633L72.3259 94.12ZM63.8459 95H62.8459V96H63.8459V95ZM66.3259 90.64V89.64H65.3259V90.64H66.3259ZM66.3259 92.64H65.3259V93.64H66.3259V92.64ZM69.8259 92.64L69.9325 91.6457L69.8794 91.64H69.8259V92.64ZM70.6259 92.18L71.5339 92.5991L71.5369 92.5926L71.5397 92.5861L70.6259 92.18ZM70.6259 91.12L69.7121 91.5261L69.715 91.5326L69.718 91.5391L70.6259 91.12ZM69.8259 90.64V91.64H69.8794L69.9325 91.6343L69.8259 90.64ZM66.3259 86.96V85.96H65.3259V86.96H66.3259ZM66.3259 88.62H65.3259V89.62H66.3259V88.62ZM70.0259 87.2L69.2888 87.8757L69.3182 87.9078L69.3502 87.9372L70.0259 87.2ZM63.8459 85.6H69.4459V83.6H63.8459V85.6ZM69.4459 85.6C70.1954 85.6 70.7351 85.7942 71.1392 86.1192L72.3927 84.5608C71.5702 83.8992 70.5632 83.6 69.4459 83.6V85.6ZM71.1531 86.1302C71.6133 86.4871 71.7985 86.859 71.8286 87.2725L73.8233 87.1275C73.7467 86.0743 73.2253 85.2063 72.3788 84.5498L71.1531 86.1302ZM71.8773 87.5162C71.8673 87.4865 71.8609 87.4617 71.8568 87.4441C71.8526 87.4262 71.8499 87.4118 71.8483 87.4019C71.8466 87.3919 71.8457 87.3844 71.8451 87.3801C71.8446 87.3757 71.8444 87.3732 71.8444 87.373C71.8444 87.3728 71.8445 87.3742 71.8447 87.3773C71.8448 87.3805 71.845 87.3849 71.8452 87.3908C71.8456 87.4028 71.8459 87.419 71.8459 87.44H73.8459C73.8459 87.3425 73.8472 87.1014 73.7746 86.8838L71.8773 87.5162ZM71.8459 87.44C71.8459 87.9641 71.6645 88.3621 71.2698 88.7054L72.5821 90.2146C73.414 89.4912 73.8459 88.5425 73.8459 87.44H71.8459ZM71.4114 90.3175C72.0706 90.713 72.3259 91.1884 72.3259 91.82H74.3259C74.3259 90.425 73.6479 89.327 72.4404 88.6025L71.4114 90.3175ZM72.3259 91.82C72.3259 92.4829 72.1034 92.9749 71.657 93.3767L72.9949 94.8633C73.8818 94.0651 74.3259 93.0238 74.3259 91.82H72.3259ZM71.6653 93.3693C71.2019 93.7771 70.6184 94 69.8459 94V96C71.0468 96 72.1167 95.6362 72.9866 94.8707L71.6653 93.3693ZM69.8459 94H63.8459V96H69.8459V94ZM64.8459 95V84.6H62.8459V95H64.8459ZM65.3259 90.64V92.64H67.3259V90.64H65.3259ZM66.3259 93.64H69.8259V91.64H66.3259V93.64ZM69.7194 93.6343C70.0689 93.6718 70.4506 93.6253 70.8044 93.4219C71.1566 93.2194 71.3883 92.9146 71.5339 92.5991L69.718 91.7609C69.7036 91.792 69.7219 91.7373 69.8075 91.6881C69.8946 91.638 69.9563 91.6482 69.9325 91.6457L69.7194 93.6343ZM71.5397 92.5861C71.8124 91.9726 71.8189 91.3184 71.5339 90.7009L69.718 91.5391C69.753 91.615 69.7594 91.6674 69.7121 91.7739L71.5397 92.5861ZM71.5397 90.7139C71.3986 90.3962 71.1721 90.0835 70.8204 89.8725C70.4643 89.6588 70.0764 89.6074 69.7194 89.6457L69.9325 91.6343C69.9434 91.6331 69.9309 91.6359 69.9016 91.6304C69.8706 91.6245 69.8313 91.6114 69.7914 91.5875C69.7065 91.5365 69.6933 91.4838 69.7121 91.5261L71.5397 90.7139ZM69.8259 89.64H66.3259V91.64H69.8259V89.64ZM69.4459 85.96H66.3259V87.96H69.4459V85.96ZM65.3259 86.96V88.62H67.3259V86.96H65.3259ZM66.3259 89.62H69.4459V87.62H66.3259V89.62ZM69.4459 89.62C69.9061 89.62 70.3692 89.471 70.733 89.1071L69.3188 87.6929C69.3452 87.6665 69.3802 87.6437 69.4163 87.63C69.4496 87.6174 69.4639 87.62 69.4459 87.62V89.62ZM70.733 89.1071C71.1038 88.7364 71.2659 88.2639 71.2659 87.78H69.2659C69.2659 87.8007 69.2629 87.7911 69.2734 87.764C69.2784 87.751 69.2854 87.7371 69.2942 87.7236C69.3031 87.7101 69.3119 87.6999 69.3188 87.6929L70.733 89.1071ZM71.2659 87.78C71.2659 87.2927 71.0914 86.8201 70.7017 86.4628L69.3502 87.9372C69.3267 87.9156 69.2999 87.8808 69.2819 87.8374C69.2649 87.7963 69.2659 87.7721 69.2659 87.78H71.2659ZM70.7631 86.5243C70.4058 86.1345 69.9333 85.96 69.4459 85.96V87.96C69.4539 87.96 69.4297 87.961 69.3886 87.944C69.3452 87.9261 69.3104 87.8993 69.2888 87.8757L70.7631 86.5243ZM78.6416 93.74L77.93 94.4426L77.9366 94.4494L77.9435 94.456L78.6416 93.74ZM78.6416 85.88L77.9345 85.1729L78.6416 85.88ZM86.5216 85.88L85.8144 86.5871L85.819 86.5916L86.5216 85.88ZM86.5216 93.74L87.2197 94.4561L87.2287 94.4471L86.5216 93.74ZM80.5016 87.66L81.2169 88.3587L80.5016 87.66ZM80.5016 91.94L81.2169 91.2413L80.5016 91.94ZM84.6616 91.94L83.9462 91.2413L84.6616 91.94ZM79.3532 93.0374C78.5104 92.1839 78.0816 91.1286 78.0816 89.8H76.0816C76.0816 91.618 76.6927 93.1895 77.93 94.4426L79.3532 93.0374ZM78.0816 89.8C78.0816 88.4714 78.5102 87.4256 79.3487 86.5871L77.9345 85.1729C76.6929 86.4144 76.0816 87.9819 76.0816 89.8H78.0816ZM79.3487 86.5871C80.2031 85.7327 81.2569 85.3 82.5816 85.3V83.3C80.7596 83.3 79.1867 83.9206 77.9345 85.1729L79.3487 86.5871ZM82.5816 85.3C83.9062 85.3 84.96 85.7327 85.8145 86.5871L87.2287 85.1729C85.9764 83.9206 84.4036 83.3 82.5816 83.3V85.3ZM85.819 86.5916C86.6691 87.431 87.1016 88.4754 87.1016 89.8H89.1016C89.1016 87.9779 88.4807 86.409 87.2242 85.1684L85.819 86.5916ZM87.1016 89.8C87.1016 91.1247 86.6689 92.1785 85.8145 93.0329L87.2287 94.4471C88.4809 93.1948 89.1016 91.622 89.1016 89.8H87.1016ZM85.8235 93.024C84.9531 93.8726 83.8944 94.3 82.5816 94.3V96.3C84.3888 96.3 85.9567 95.6874 87.2197 94.456L85.8235 93.024ZM82.5816 94.3C81.2688 94.3 80.21 93.8726 79.3397 93.024L77.9435 94.456C79.2064 95.6874 80.7744 96.3 82.5816 96.3V94.3ZM82.5816 85.8C81.4951 85.8 80.5409 86.1886 79.7862 86.9613L81.2169 88.3587C81.5822 87.9848 82.0147 87.8 82.5816 87.8V85.8ZM79.7862 86.9613C79.0311 87.7344 78.6616 88.7042 78.6616 89.8H80.6616C80.6616 89.1891 80.8521 88.7323 81.2169 88.3587L79.7862 86.9613ZM78.6616 89.8C78.6616 90.8958 79.0311 91.8656 79.7862 92.6387L81.2169 91.2413C80.8521 90.8677 80.6616 90.4109 80.6616 89.8H78.6616ZM79.7862 92.6387C80.5409 93.4114 81.4951 93.8 82.5816 93.8V91.8C82.0147 91.8 81.5822 91.6152 81.2169 91.2413L79.7862 92.6387ZM82.5816 93.8C83.668 93.8 84.6222 93.4114 85.3769 92.6387L83.9462 91.2413C83.5809 91.6152 83.1484 91.8 82.5816 91.8V93.8ZM85.3769 92.6387C86.1321 91.8656 86.5016 90.8958 86.5016 89.8H84.5016C84.5016 90.4109 84.3111 90.8677 83.9462 91.2413L85.3769 92.6387ZM86.5016 89.8C86.5016 88.7042 86.1321 87.7344 85.3769 86.9613L83.9462 88.3587C84.3111 88.7323 84.5016 89.1891 84.5016 89.8H86.5016ZM85.3769 86.9613C84.6222 86.1886 83.668 85.8 82.5816 85.8V87.8C83.1484 87.8 83.5809 87.9848 83.9462 88.3587L85.3769 86.9613ZM91.2738 95H90.2738V96H91.2738V95ZM91.2738 92.62V91.62H90.2738V92.62H91.2738ZM92.8538 91.9L91.9358 91.5031L91.9307 91.5154L92.8538 91.9ZM93.1738 84.6V83.6H92.1738V84.6H93.1738ZM101.774 84.6H102.774V83.6H101.774V84.6ZM101.774 95V96H102.774V95H101.774ZM99.2938 95H98.2938V96H99.2938V95ZM99.2938 86.98H100.294V85.98H99.2938V86.98ZM95.6538 86.98V85.98H94.6538V86.98H95.6538ZM94.7138 93.72L95.5198 94.3119L95.5241 94.3059L94.7138 93.72ZM92.0938 94H91.2738V96H92.0938V94ZM92.2738 95V92.62H90.2738V95H92.2738ZM91.2738 93.62H91.9137V91.62H91.2738V93.62ZM91.9137 93.62C92.328 93.62 92.7312 93.4986 93.0768 93.2339C93.4099 92.9788 93.6302 92.6365 93.7768 92.2846L91.9307 91.5154C91.8773 91.6435 91.841 91.6612 91.8607 91.6461C91.8712 91.6381 91.8868 91.6293 91.904 91.6238C91.9203 91.6185 91.9258 91.62 91.9137 91.62V93.62ZM93.7716 92.2969C94.0742 91.5972 94.1738 90.5521 94.1738 89.32H92.1738C92.1738 90.5413 92.06 91.2161 91.9359 91.5031L93.7716 92.2969ZM94.1738 89.32V84.6H92.1738V89.32H94.1738ZM93.1738 85.6H101.774V83.6H93.1738V85.6ZM100.774 84.6V95H102.774V84.6H100.774ZM101.774 94H99.2938V96H101.774V94ZM100.294 95V86.98H98.2938V95H100.294ZM99.2938 85.98H95.6538V87.98H99.2938V85.98ZM94.6538 86.98V89.86H96.6538V86.98H94.6538ZM94.6538 89.86C94.6538 91.472 94.3529 92.5124 93.9034 93.1341L95.5241 94.3059C96.3279 93.1943 96.6538 91.6614 96.6538 89.86H94.6538ZM93.9077 93.1281C93.4819 93.708 92.917 94 92.0938 94V96C93.5105 96 94.6923 95.4387 95.5198 94.3119L93.9077 93.1281ZM106.49 95H105.49V96H106.49V95ZM106.49 84.6V83.6H105.49V84.6H106.49ZM108.97 84.6H109.97V83.6H108.97V84.6ZM108.97 87.94H107.97V88.94H108.97V87.94ZM114.49 88.96L113.796 89.6806L113.804 89.6878L114.49 88.96ZM114.49 94L115.176 94.7274L115.183 94.7207L115.19 94.7139L114.49 94ZM108.97 90.32V89.32H107.97V90.32H108.97ZM108.97 92.62H107.97V93.62H108.97V92.62ZM112.63 92.3L111.901 91.6146L111.9 91.6161L112.63 92.3ZM112.67 90.7L111.875 91.3075L111.895 91.3337L111.917 91.3585L112.67 90.7ZM111.99 90.32L112.084 89.3245L112.037 89.32H111.99V90.32ZM111.91 94H106.49V96H111.91V94ZM107.49 95V84.6H105.49V95H107.49ZM106.49 85.6H108.97V83.6H106.49V85.6ZM107.97 84.6V87.94H109.97V84.6H107.97ZM108.97 88.94H111.91V86.94H108.97V88.94ZM111.91 88.94C112.674 88.94 113.283 89.1864 113.796 89.6806L115.183 88.2394C114.283 87.3736 113.172 86.94 111.91 86.94V88.94ZM113.804 89.6878C114.28 90.1364 114.53 90.705 114.53 91.48H116.53C116.53 90.2017 116.086 89.0903 115.175 88.2322L113.804 89.6878ZM114.53 91.48C114.53 92.2204 114.285 92.8003 113.789 93.2861L115.19 94.7139C116.081 93.8397 116.53 92.7396 116.53 91.48H114.53ZM113.803 93.2726C113.291 93.756 112.68 94 111.91 94V96C113.166 96 114.275 95.5773 115.176 94.7274L113.803 93.2726ZM107.97 90.32V92.62H109.97V90.32H107.97ZM108.97 93.62H111.89V91.62H108.97V93.62ZM111.89 93.62C112.458 93.62 112.97 93.3996 113.359 92.9839L111.9 91.6161C111.892 91.6247 111.888 91.6275 111.889 91.6271C111.889 91.6265 111.893 91.6244 111.898 91.6221C111.903 91.6199 111.907 91.6191 111.907 91.619C111.908 91.6189 111.902 91.62 111.89 91.62V93.62ZM113.358 92.9854C113.751 92.5675 113.95 92.0468 113.95 91.48H111.95C111.95 91.5532 111.935 91.5792 111.901 91.6146L113.358 92.9854ZM113.95 91.48C113.95 90.9526 113.782 90.4526 113.422 90.0415L111.917 91.3585C111.931 91.374 111.95 91.3941 111.95 91.48H113.95ZM113.464 90.0925C113.124 89.6485 112.646 89.378 112.084 89.3245L111.895 91.3155C111.903 91.3163 111.904 91.3171 111.9 91.3159C111.896 91.3146 111.889 91.3121 111.882 91.3079C111.875 91.3038 111.87 91.3 111.868 91.2982C111.866 91.2966 111.869 91.2988 111.875 91.3075L113.464 90.0925ZM111.99 89.32H111.89V91.32H111.99V89.32ZM111.89 89.32H108.97V91.32H111.89V89.32ZM122.156 90.9V89.9H121.156V90.9H122.156ZM122.156 95V96H123.156V95H122.156ZM119.676 95H118.676V96H119.676V95ZM119.676 84.6V83.6H118.676V84.6H119.676ZM122.156 84.6H123.156V83.6H122.156V84.6ZM122.156 88.52H121.156V89.52H122.156V88.52ZM127.036 88.52V89.52H128.036V88.52H127.036ZM127.036 84.6V83.6H126.036V84.6H127.036ZM129.516 84.6H130.516V83.6H129.516V84.6ZM129.516 95V96H130.516V95H129.516ZM127.036 95H126.036V96H127.036V95ZM127.036 90.9H128.036V89.9H127.036V90.9ZM121.156 90.9V95H123.156V90.9H121.156ZM122.156 94H119.676V96H122.156V94ZM120.676 95V84.6H118.676V95H120.676ZM119.676 85.6H122.156V83.6H119.676V85.6ZM121.156 84.6V88.52H123.156V84.6H121.156ZM122.156 89.52H127.036V87.52H122.156V89.52ZM128.036 88.52V84.6H126.036V88.52H128.036ZM127.036 85.6H129.516V83.6H127.036V85.6ZM128.516 84.6V95H130.516V84.6H128.516ZM129.516 94H127.036V96H129.516V94ZM128.036 95V90.9H126.036V95H128.036ZM127.036 89.9H122.156V91.9H127.036V89.9ZM134.229 95H133.229V96H134.229V95ZM134.229 84.6V83.6H133.229V84.6H134.229ZM136.709 84.6H137.709V83.6H136.709V84.6ZM136.709 87.94H135.709V88.94H136.709V87.94ZM142.229 88.96L141.535 89.6806L141.543 89.6878L142.229 88.96ZM142.229 94L142.915 94.7274L142.922 94.7207L142.929 94.7139L142.229 94ZM146.869 95V96H147.869V95H146.869ZM144.389 95H143.389V96H144.389V95ZM144.389 84.6V83.6H143.389V84.6H144.389ZM146.869 84.6H147.869V83.6H146.869V84.6ZM139.729 90.32L139.824 89.3245L139.776 89.32H139.729V90.32ZM136.709 90.32V89.32H135.709V90.32H136.709ZM136.709 92.62H135.709V93.62H136.709V92.62ZM140.369 92.3L139.641 91.6146L139.639 91.6161L140.369 92.3ZM140.409 90.7L139.614 91.3075L139.634 91.3337L139.656 91.3585L140.409 90.7ZM135.229 95V84.6H133.229V95H135.229ZM134.229 85.6H136.709V83.6H134.229V85.6ZM135.709 84.6V87.94H137.709V84.6H135.709ZM136.709 88.94H139.649V86.94H136.709V88.94ZM139.649 88.94C140.413 88.94 141.022 89.1864 141.535 89.6806L142.922 88.2394C142.022 87.3736 140.911 86.94 139.649 86.94V88.94ZM141.543 89.6878C142.019 90.1364 142.269 90.705 142.269 91.48H144.269C144.269 90.2017 143.825 89.0903 142.915 88.2322L141.543 89.6878ZM142.269 91.48C142.269 92.2204 142.024 92.8003 141.529 93.2861L142.929 94.7139C143.82 93.8397 144.269 92.7396 144.269 91.48H142.269ZM141.543 93.2726C141.03 93.756 140.419 94 139.649 94V96C140.905 96 142.014 95.5773 142.915 94.7274L141.543 93.2726ZM139.649 94H134.229V96H139.649V94ZM146.869 94H144.389V96H146.869V94ZM145.389 95V84.6H143.389V95H145.389ZM144.389 85.6H146.869V83.6H144.389V85.6ZM145.869 84.6V95H147.869V84.6H145.869ZM139.729 89.32H139.629V91.32H139.729V89.32ZM139.629 89.32H136.709V91.32H139.629V89.32ZM135.709 90.32V92.62H137.709V90.32H135.709ZM136.709 93.62H139.629V91.62H136.709V93.62ZM139.629 93.62C140.198 93.62 140.709 93.3996 141.098 92.9839L139.639 91.6161C139.631 91.6247 139.627 91.6275 139.628 91.6271C139.628 91.6265 139.632 91.6244 139.637 91.6221C139.642 91.6199 139.646 91.6191 139.646 91.619C139.647 91.6189 139.641 91.62 139.629 91.62V93.62ZM141.097 92.9854C141.49 92.5675 141.689 92.0468 141.689 91.48H139.689C139.689 91.5532 139.674 91.5792 139.641 91.6146L141.097 92.9854ZM141.689 91.48C141.689 90.9526 141.521 90.4526 141.161 90.0415L139.656 91.3585C139.67 91.374 139.689 91.3941 139.689 91.48H141.689ZM141.203 90.0925C140.864 89.6485 140.385 89.378 139.824 89.3245L139.634 91.3155C139.642 91.3163 139.643 91.3171 139.639 91.3159C139.635 91.3146 139.628 91.3121 139.621 91.3079C139.614 91.3038 139.609 91.3 139.607 91.2982C139.605 91.2966 139.608 91.2988 139.614 91.3075L141.203 90.0925ZM158.554 95L157.748 95.5907L158.047 96H158.554V95ZM156.094 91.64L156.901 91.0493L156.091 89.9427L155.285 91.0524L156.094 91.64ZM153.654 95V96H154.164L154.464 95.5876L153.654 95ZM150.714 95L149.907 94.4102L148.746 96H150.714V95ZM154.614 89.66L155.422 90.2498L155.852 89.6612L155.423 89.0718L154.614 89.66ZM150.934 84.6V83.6H148.971L150.126 85.1882L150.934 84.6ZM153.854 84.6L154.663 84.0118L154.364 83.6H153.854V84.6ZM156.094 87.68L155.286 88.2682L156.091 89.3752L156.901 88.2716L156.094 87.68ZM158.354 84.6V83.6H157.848L157.548 84.0084L158.354 84.6ZM161.274 84.6L162.082 85.1903L163.244 83.6H161.274V84.6ZM157.574 89.66L156.767 89.0697L156.336 89.6596L156.767 90.2498L157.574 89.66ZM161.474 95V96H163.443L162.282 94.4102L161.474 95ZM159.361 94.4093L156.901 91.0493L155.288 92.2307L157.748 95.5907L159.361 94.4093ZM155.285 91.0524L152.845 94.4124L154.464 95.5876L156.904 92.2276L155.285 91.0524ZM153.654 94H150.714V96H153.654V94ZM151.522 95.5898L155.422 90.2498L153.807 89.0702L149.907 94.4102L151.522 95.5898ZM155.423 89.0718L151.743 84.0118L150.126 85.1882L153.806 90.2482L155.423 89.0718ZM150.934 85.6H153.854V83.6H150.934V85.6ZM153.046 85.1882L155.286 88.2682L156.903 87.0918L154.663 84.0118L153.046 85.1882ZM156.901 88.2716L159.161 85.1916L157.548 84.0084L155.288 87.0884L156.901 88.2716ZM158.354 85.6H161.274V83.6H158.354V85.6ZM160.467 84.0097L156.767 89.0697L158.382 90.2503L162.082 85.1903L160.467 84.0097ZM156.767 90.2498L160.667 95.5898L162.282 94.4102L158.382 89.0702L156.767 90.2498ZM161.474 94H158.554V96H161.474V94ZM175.563 89.9L176.343 89.2734L174.563 87.0601V89.9H175.563ZM175.563 95V96H176.563V95H175.563ZM173.083 95H172.083V96H173.083V95ZM173.083 84.6V83.6H172.083V84.6H173.083ZM175.563 84.6H176.563V83.6H175.563V84.6ZM175.563 89.34H174.563V92.2462L176.352 89.9553L175.563 89.34ZM179.263 84.6V83.6H178.775L178.475 83.9847L179.263 84.6ZM182.283 84.6L183.073 85.2135L184.327 83.6H182.283V84.6ZM178.383 89.62L177.594 89.0065L177.108 89.6317L177.605 90.2479L178.383 89.62ZM182.723 95V96H184.815L183.502 94.3721L182.723 95ZM179.663 95L178.884 95.6266L179.184 96H179.663V95ZM174.563 89.9V95H176.563V89.9H174.563ZM175.563 94H173.083V96H175.563V94ZM174.083 95V84.6H172.083V95H174.083ZM173.083 85.6H175.563V83.6H173.083V85.6ZM174.563 84.6V89.34H176.563V84.6H174.563ZM176.352 89.9553L180.052 85.2153L178.475 83.9847L174.775 88.7247L176.352 89.9553ZM179.263 85.6H182.283V83.6H179.263V85.6ZM181.494 83.9865L177.594 89.0065L179.173 90.2335L183.073 85.2135L181.494 83.9865ZM177.605 90.2479L181.945 95.6279L183.502 94.3721L179.162 88.9921L177.605 90.2479ZM182.723 94H179.663V96H182.723V94ZM180.443 94.3734L176.343 89.2734L174.784 90.5266L178.884 95.6266L180.443 94.3734ZM185.782 95H184.782V96H185.782V95ZM185.782 92.62V91.62H184.782V92.62H185.782ZM187.362 91.9L186.444 91.5031L186.439 91.5154L187.362 91.9ZM187.682 84.6V83.6H186.682V84.6H187.682ZM196.282 84.6H197.282V83.6H196.282V84.6ZM196.282 95V96H197.282V95H196.282ZM193.802 95H192.802V96H193.802V95ZM193.802 86.98H194.802V85.98H193.802V86.98ZM190.162 86.98V85.98H189.162V86.98H190.162ZM189.222 93.72L190.028 94.3119L190.033 94.3059L189.222 93.72ZM186.602 94H185.782V96H186.602V94ZM186.782 95V92.62H184.782V95H186.782ZM185.782 93.62H186.422V91.62H185.782V93.62ZM186.422 93.62C186.837 93.62 187.24 93.4986 187.585 93.2339C187.918 92.9788 188.139 92.6365 188.285 92.2846L186.439 91.5154C186.386 91.6435 186.35 91.6612 186.369 91.6461C186.38 91.6381 186.395 91.6293 186.413 91.6238C186.429 91.6185 186.434 91.62 186.422 91.62V93.62ZM188.28 92.2969C188.583 91.5972 188.682 90.5521 188.682 89.32H186.682C186.682 90.5413 186.569 91.2161 186.444 91.5031L188.28 92.2969ZM188.682 89.32V84.6H186.682V89.32H188.682ZM187.682 85.6H196.282V83.6H187.682V85.6ZM195.282 84.6V95H197.282V84.6H195.282ZM196.282 94H193.802V96H196.282V94ZM194.802 95V86.98H192.802V95H194.802ZM193.802 85.98H190.162V87.98H193.802V85.98ZM189.162 86.98V89.86H191.162V86.98H189.162ZM189.162 89.86C189.162 91.472 188.862 92.5124 188.412 93.1341L190.033 94.3059C190.837 93.1943 191.162 91.6614 191.162 89.86H189.162ZM188.416 93.1281C187.991 93.708 187.426 94 186.602 94V96C188.019 96 189.201 95.4387 190.028 94.3119L188.416 93.1281ZM208.358 88.8H209.358V86.0834L207.597 88.1516L208.358 88.8ZM203.078 95V96H203.54L203.84 95.6484L203.078 95ZM200.998 95H199.998V96H200.998V95ZM200.998 84.6V83.6H199.998V84.6H200.998ZM203.478 84.6H204.478V83.6H203.478V84.6ZM203.478 90.86H202.478V93.5966L204.243 91.5047L203.478 90.86ZM208.758 84.6V83.6H208.294L207.994 83.9553L208.758 84.6ZM210.838 84.6H211.838V83.6H210.838V84.6ZM210.838 95V96H211.838V95H210.838ZM208.358 95H207.358V96H208.358V95ZM207.597 88.1516L202.317 94.3516L203.84 95.6484L209.12 89.4484L207.597 88.1516ZM203.078 94H200.998V96H203.078V94ZM201.998 95V84.6H199.998V95H201.998ZM200.998 85.6H203.478V83.6H200.998V85.6ZM202.478 84.6V90.86H204.478V84.6H202.478ZM204.243 91.5047L209.523 85.2447L207.994 83.9553L202.714 90.2153L204.243 91.5047ZM208.758 85.6H210.838V83.6H208.758V85.6ZM209.838 84.6V95H211.838V84.6H209.838ZM210.838 94H208.358V96H210.838V94ZM209.358 95V88.8H207.358V95H209.358ZM226.011 90.72V91.72H226.874L227.001 90.8665L226.011 90.72ZM217.751 90.72V89.72H216.44L216.787 90.9847L217.751 90.72ZM218.851 92.38L218.236 93.1683L218.247 93.1766L218.258 93.1846L218.851 92.38ZM223.231 91.9L223.509 90.9394L222.875 90.756L222.457 91.2668L223.231 91.9ZM225.651 92.6L226.52 93.0961L227.15 91.9926L225.929 91.6394L225.651 92.6ZM223.631 94.58L223.147 93.7052L223.141 93.7084L223.631 94.58ZM216.771 93.74L216.064 94.4471L216.071 94.4538L216.078 94.4603L216.771 93.74ZM216.731 85.88L216.024 85.1729L216.731 85.88ZM224.511 85.88L223.8 86.5826L223.804 86.5871L224.511 85.88ZM217.771 88.78L216.81 88.5053L216.446 89.78H217.771V88.78ZM223.511 88.78V89.78H224.863L224.468 88.4873L223.511 88.78ZM222.411 87.2L223.011 86.4L222.411 87.2ZM226.011 89.72H217.751V91.72H226.011V89.72ZM216.787 90.9847C217.03 91.8685 217.517 92.6068 218.236 93.1683L219.467 91.5917C219.093 91.2998 218.846 90.9315 218.716 90.4553L216.787 90.9847ZM218.258 93.1846C218.999 93.7319 219.857 94 220.791 94V92C220.26 92 219.824 91.8548 219.445 91.5754L218.258 93.1846ZM220.791 94C222.089 94 223.198 93.52 224.005 92.5332L222.457 91.2668C222.065 91.7467 221.547 92 220.791 92V94ZM222.954 92.8606L225.374 93.5606L225.929 91.6394L223.509 90.9394L222.954 92.8606ZM224.783 92.1039C224.396 92.7809 223.857 93.3117 223.147 93.7052L224.116 95.4548C225.139 94.8883 225.947 94.0991 226.52 93.0961L224.783 92.1039ZM223.141 93.7084C222.447 94.099 221.671 94.3 220.791 94.3V96.3C221.992 96.3 223.109 96.021 224.122 95.4516L223.141 93.7084ZM220.791 94.3C219.431 94.3 218.345 93.8674 217.465 93.0197L216.078 94.4603C217.357 95.6926 218.952 96.3 220.791 96.3V94.3ZM217.479 93.0329C216.606 92.1608 216.171 91.1049 216.171 89.8H214.171C214.171 91.6151 214.803 93.1859 216.064 94.4471L217.479 93.0329ZM216.171 89.8C216.171 88.4714 216.6 87.4256 217.439 86.5871L216.024 85.1729C214.783 86.4144 214.171 87.9819 214.171 89.8H216.171ZM217.439 86.5871C218.296 85.7292 219.339 85.3 220.631 85.3V83.3C218.831 83.3 217.273 83.9242 216.024 85.1729L217.439 86.5871ZM220.631 85.3C221.924 85.3 222.957 85.7289 223.8 86.5826L225.223 85.1774C223.986 83.9245 222.432 83.3 220.631 83.3V85.3ZM223.804 86.5871C224.66 87.4433 225.091 88.4913 225.091 89.8H227.091C227.091 87.9887 226.469 86.4234 225.219 85.1729L223.804 86.5871ZM225.091 89.8C225.091 89.9882 225.071 90.243 225.022 90.5735L227.001 90.8665C227.058 90.477 227.091 90.1184 227.091 89.8H225.091ZM217.771 89.78H223.511V87.78H217.771V89.78ZM224.468 88.4873C224.207 87.6368 223.719 86.9305 223.011 86.4L221.811 88C222.171 88.2695 222.416 88.6165 222.555 89.0727L224.468 88.4873ZM223.011 86.4C222.301 85.8674 221.483 85.6 220.591 85.6V87.6C221.06 87.6 221.455 87.7326 221.811 88L223.011 86.4ZM220.591 85.6C219.717 85.6 218.916 85.8735 218.222 86.4074L219.441 87.9926C219.787 87.7265 220.16 87.6 220.591 87.6V85.6ZM218.222 86.4074C217.526 86.9428 217.053 87.654 216.81 88.5053L218.733 89.0547C218.863 88.5994 219.097 88.2572 219.441 87.9926L218.222 86.4074ZM232.702 90.9V89.9H231.702V90.9H232.702ZM232.702 95V96H233.702V95H232.702ZM230.222 95H229.222V96H230.222V95ZM230.222 84.6V83.6H229.222V84.6H230.222ZM232.702 84.6H233.702V83.6H232.702V84.6ZM232.702 88.52H231.702V89.52H232.702V88.52ZM237.582 88.52V89.52H238.582V88.52H237.582ZM237.582 84.6V83.6H236.582V84.6H237.582ZM240.062 84.6H241.062V83.6H240.062V84.6ZM240.062 95V96H241.062V95H240.062ZM237.582 95H236.582V96H237.582V95ZM237.582 90.9H238.582V89.9H237.582V90.9ZM231.702 90.9V95H233.702V90.9H231.702ZM232.702 94H230.222V96H232.702V94ZM231.222 95V84.6H229.222V95H231.222ZM230.222 85.6H232.702V83.6H230.222V85.6ZM231.702 84.6V88.52H233.702V84.6H231.702ZM232.702 89.52H237.582V87.52H232.702V89.52ZM238.582 88.52V84.6H236.582V88.52H238.582ZM237.582 85.6H240.062V83.6H237.582V85.6ZM239.062 84.6V95H241.062V84.6H239.062ZM240.062 94H237.582V96H240.062V94ZM238.582 95V90.9H236.582V95H238.582ZM237.582 89.9H232.702V91.9H237.582V89.9ZM247.375 95H246.375V96H247.375V95ZM247.375 86.98H248.375V85.98H247.375V86.98ZM243.915 86.98H242.915V87.98H243.915V86.98ZM243.915 84.6V83.6H242.915V84.6H243.915ZM253.295 84.6H254.295V83.6H253.295V84.6ZM253.295 86.98V87.98H254.295V86.98H253.295ZM249.855 86.98V85.98H248.855V86.98H249.855ZM249.855 95V96H250.855V95H249.855ZM248.375 95V86.98H246.375V95H248.375ZM247.375 85.98H243.915V87.98H247.375V85.98ZM244.915 86.98V84.6H242.915V86.98H244.915ZM243.915 85.6H253.295V83.6H243.915V85.6ZM252.295 84.6V86.98H254.295V84.6H252.295ZM253.295 85.98H249.855V87.98H253.295V85.98ZM248.855 86.98V95H250.855V86.98H248.855ZM249.855 94H247.375V96H249.855V94ZM257.969 93.74L257.257 94.4426L257.264 94.4494L257.271 94.456L257.969 93.74ZM257.969 85.88L257.262 85.1729L257.969 85.88ZM265.849 85.88L265.142 86.5871L265.146 86.5916L265.849 85.88ZM265.849 93.74L266.547 94.4561L266.556 94.4471L265.849 93.74ZM259.829 87.66L260.544 88.3587L259.829 87.66ZM259.829 91.94L260.544 91.2413L259.829 91.94ZM263.989 91.94L263.274 91.2413L263.989 91.94ZM258.681 93.0374C257.838 92.1839 257.409 91.1286 257.409 89.8H255.409C255.409 91.618 256.02 93.1895 257.257 94.4426L258.681 93.0374ZM257.409 89.8C257.409 88.4714 257.838 87.4256 258.676 86.5871L257.262 85.1729C256.02 86.4144 255.409 87.9819 255.409 89.8H257.409ZM258.676 86.5871C259.53 85.7327 260.584 85.3 261.909 85.3V83.3C260.087 83.3 258.514 83.9206 257.262 85.1729L258.676 86.5871ZM261.909 85.3C263.234 85.3 264.287 85.7327 265.142 86.5871L266.556 85.1729C265.304 83.9206 263.731 83.3 261.909 83.3V85.3ZM265.146 86.5916C265.996 87.431 266.429 88.4754 266.429 89.8H268.429C268.429 87.9779 267.808 86.409 266.551 85.1684L265.146 86.5916ZM266.429 89.8C266.429 91.1247 265.996 92.1785 265.142 93.0329L266.556 94.4471C267.808 93.1948 268.429 91.622 268.429 89.8H266.429ZM265.151 93.024C264.28 93.8726 263.222 94.3 261.909 94.3V96.3C263.716 96.3 265.284 95.6874 266.547 94.456L265.151 93.024ZM261.909 94.3C260.596 94.3 259.537 93.8726 258.667 93.024L257.271 94.456C258.534 95.6874 260.102 96.3 261.909 96.3V94.3ZM261.909 85.8C260.822 85.8 259.868 86.1886 259.114 86.9613L260.544 88.3587C260.91 87.9848 261.342 87.8 261.909 87.8V85.8ZM259.114 86.9613C258.358 87.7344 257.989 88.7042 257.989 89.8H259.989C259.989 89.1891 260.179 88.7323 260.544 88.3587L259.114 86.9613ZM257.989 89.8C257.989 90.8958 258.358 91.8656 259.114 92.6387L260.544 91.2413C260.179 90.8677 259.989 90.4109 259.989 89.8H257.989ZM259.114 92.6387C259.868 93.4114 260.822 93.8 261.909 93.8V91.8C261.342 91.8 260.91 91.6152 260.544 91.2413L259.114 92.6387ZM261.909 93.8C262.995 93.8 263.95 93.4114 264.704 92.6387L263.274 91.2413C262.908 91.6152 262.476 91.8 261.909 91.8V93.8ZM264.704 92.6387C265.459 91.8656 265.829 90.8958 265.829 89.8H263.829C263.829 90.4109 263.638 90.8677 263.274 91.2413L264.704 92.6387ZM265.829 89.8C265.829 88.7042 265.459 87.7344 264.704 86.9613L263.274 88.3587C263.638 88.7323 263.829 89.1891 263.829 89.8H265.829ZM264.704 86.9613C263.95 86.1886 262.995 85.8 261.909 85.8V87.8C262.476 87.8 262.908 87.9848 263.274 88.3587L264.704 86.9613ZM271.752 84.6V83.6H270.752V84.6H271.752ZM279.672 85.34L279.045 86.1192L279.052 86.1248L279.059 86.1302L279.672 85.34ZM280.732 87.2L279.735 87.2725L279.744 87.3974L279.784 87.5162L280.732 87.2ZM279.832 89.46L279.176 88.7054L278.137 89.609L279.318 90.3175L279.832 89.46ZM280.232 94.12L280.893 94.8708L280.901 94.8633L280.232 94.12ZM271.752 95H270.752V96H271.752V95ZM274.232 90.64V89.64H273.232V90.64H274.232ZM274.232 92.64H273.232V93.64H274.232V92.64ZM277.732 92.64L277.839 91.6457L277.786 91.64H277.732V92.64ZM278.532 92.18L279.44 92.5991L279.443 92.5926L279.446 92.5861L278.532 92.18ZM278.532 91.12L277.618 91.5261L277.621 91.5326L277.624 91.5391L278.532 91.12ZM277.732 90.64V91.64H277.786L277.839 91.6343L277.732 90.64ZM274.232 86.96V85.96H273.232V86.96H274.232ZM274.232 88.62H273.232V89.62H274.232V88.62ZM277.932 87.2L277.195 87.8757L277.224 87.9078L277.256 87.9372L277.932 87.2ZM271.752 85.6H277.352V83.6H271.752V85.6ZM277.352 85.6C278.102 85.6 278.641 85.7942 279.045 86.1192L280.299 84.5608C279.476 83.8992 278.469 83.6 277.352 83.6V85.6ZM279.059 86.1302C279.52 86.4871 279.705 86.859 279.735 87.2725L281.73 87.1275C281.653 86.0743 281.132 85.2063 280.285 84.5498L279.059 86.1302ZM279.784 87.5162C279.774 87.4865 279.767 87.4617 279.763 87.4441C279.759 87.4262 279.756 87.4118 279.755 87.4019C279.753 87.3919 279.752 87.3844 279.751 87.3801C279.751 87.3757 279.751 87.3732 279.751 87.373C279.751 87.3728 279.751 87.3742 279.751 87.3773C279.751 87.3805 279.751 87.3849 279.751 87.3908C279.752 87.4028 279.752 87.419 279.752 87.44H281.752C281.752 87.3425 281.753 87.1014 281.681 86.8838L279.784 87.5162ZM279.752 87.44C279.752 87.9641 279.571 88.3621 279.176 88.7054L280.488 90.2146C281.32 89.4912 281.752 88.5425 281.752 87.44H279.752ZM279.318 90.3175C279.977 90.713 280.232 91.1884 280.232 91.82H282.232C282.232 90.425 281.554 89.327 280.347 88.6025L279.318 90.3175ZM280.232 91.82C280.232 92.4829 280.01 92.9749 279.563 93.3767L280.901 94.8633C281.788 94.0651 282.232 93.0238 282.232 91.82H280.232ZM279.572 93.3693C279.108 93.7771 278.525 94 277.752 94V96C278.953 96 280.023 95.6362 280.893 94.8707L279.572 93.3693ZM277.752 94H271.752V96H277.752V94ZM272.752 95V84.6H270.752V95H272.752ZM273.232 90.64V92.64H275.232V90.64H273.232ZM274.232 93.64H277.732V91.64H274.232V93.64ZM277.626 93.6343C277.975 93.6718 278.357 93.6253 278.711 93.4219C279.063 93.2194 279.294 92.9146 279.44 92.5991L277.624 91.7609C277.61 91.792 277.628 91.7373 277.714 91.6881C277.801 91.638 277.863 91.6482 277.839 91.6457L277.626 93.6343ZM279.446 92.5861C279.719 91.9726 279.725 91.3184 279.44 90.7009L277.624 91.5391C277.659 91.615 277.666 91.6674 277.618 91.7739L279.446 92.5861ZM279.446 90.7139C279.305 90.3962 279.078 90.0835 278.727 89.8725C278.371 89.6588 277.983 89.6074 277.626 89.6457L277.839 91.6343C277.85 91.6331 277.837 91.6359 277.808 91.6304C277.777 91.6245 277.738 91.6114 277.698 91.5875C277.613 91.5365 277.6 91.4838 277.618 91.5261L279.446 90.7139ZM277.732 89.64H274.232V91.64H277.732V89.64ZM277.352 85.96H274.232V87.96H277.352V85.96ZM273.232 86.96V88.62H275.232V86.96H273.232ZM274.232 89.62H277.352V87.62H274.232V89.62ZM277.352 89.62C277.812 89.62 278.275 89.471 278.639 89.1071L277.225 87.6929C277.251 87.6665 277.286 87.6437 277.323 87.63C277.356 87.6174 277.37 87.62 277.352 87.62V89.62ZM278.639 89.1071C279.01 88.7364 279.172 88.2639 279.172 87.78H277.172C277.172 87.8007 277.169 87.7911 277.18 87.764C277.185 87.751 277.192 87.7371 277.2 87.7236C277.209 87.7101 277.218 87.6999 277.225 87.6929L278.639 89.1071ZM279.172 87.78C279.172 87.2927 278.998 86.8201 278.608 86.4628L277.256 87.9372C277.233 87.9156 277.206 87.8808 277.188 87.8374C277.171 87.7963 277.172 87.7721 277.172 87.78H279.172ZM278.669 86.5243C278.312 86.1345 277.84 85.96 277.352 85.96V87.96C277.36 87.96 277.336 87.961 277.295 87.944C277.251 87.9261 277.217 87.8993 277.195 87.8757L278.669 86.5243Z" fill="#261104"/>
</svg>
