<svg width="50" height="50" viewBox="0 0 50 50" fill="none" xmlns="http://www.w3.org/2000/svg">
<path d="M15 18.3332V17.3332C14.4477 17.3332 14 17.7809 14 18.3332H15ZM15 21.6665L15.7071 22.3736L16 22.0807V21.6665H15ZM14.0236 22.6428L13.3165 21.9357L13.3165 21.9357L14.0236 22.6428ZM9.3096 22.6428L8.6025 23.3499L8.6025 23.3499L9.3096 22.6428ZM21.6666 43.3332H22.6666V42.919L22.3737 42.6261L21.6666 43.3332ZM18.3333 39.9998H17.3333V40.414L17.6262 40.7069L18.3333 39.9998ZM18.3333 34.9998H19.3333V34.5856L19.0404 34.2927L18.3333 34.9998ZM15 31.6665H14V32.0807L14.2929 32.3736L15 31.6665ZM15 28.3332V27.3332C14.4477 27.3332 14 27.7809 14 28.3332H15ZM30.6666 1.6665V8.33317H32.6666V1.6665H30.6666ZM28.3333 10.6665H25V12.6665H28.3333V10.6665ZM18.3333 17.3332H15V19.3332H18.3333V17.3332ZM14 18.3332V21.6665H16V18.3332H14ZM14.2929 20.9594L13.3165 21.9357L14.7308 23.3499L15.7071 22.3736L14.2929 20.9594ZM10.0167 21.9357L4.0404 15.9594L2.62619 17.3736L8.6025 23.3499L10.0167 21.9357ZM20.6666 14.9998C20.6666 16.2885 19.622 17.3332 18.3333 17.3332V19.3332C20.7265 19.3332 22.6666 17.3931 22.6666 14.9998H20.6666ZM25 10.6665C22.6067 10.6665 20.6666 12.6066 20.6666 14.9998H22.6666C22.6666 13.7112 23.7113 12.6665 25 12.6665V10.6665ZM13.3165 21.9357C12.4053 22.8469 10.9279 22.8469 10.0167 21.9357L8.6025 23.3499C10.2948 25.0422 13.0385 25.0422 14.7308 23.3499L13.3165 21.9357ZM30.6666 8.33317C30.6666 9.62183 29.622 10.6665 28.3333 10.6665V12.6665C30.7265 12.6665 32.6666 10.7264 32.6666 8.33317H30.6666ZM22.6666 48.3332V43.3332H20.6666V48.3332H22.6666ZM22.3737 42.6261L19.0404 39.2927L17.6262 40.7069L20.9595 44.0403L22.3737 42.6261ZM19.3333 39.9998V34.9998H17.3333V39.9998H19.3333ZM19.0404 34.2927L15.7071 30.9594L14.2929 32.3736L17.6262 35.7069L19.0404 34.2927ZM16 31.6665V28.3332H14V31.6665H16ZM15 29.3332H28.3333V27.3332H15V29.3332ZM30.6666 31.6665V33.8887H32.6666V31.6665H30.6666ZM36.1111 39.3332H45V37.3332H36.1111V39.3332ZM34 37.2221C34 38.388 34.9451 39.3332 36.1111 39.3332V37.3332C36.0497 37.3332 36 37.2834 36 37.2221H34ZM32.7777 35.9998C33.4527 35.9998 34 36.547 34 37.2221H36C36 35.4425 34.5573 33.9998 32.7777 33.9998V35.9998ZM30.6666 33.8887C30.6666 35.0547 31.6118 35.9998 32.7777 35.9998V33.9998C32.7164 33.9998 32.6666 33.9501 32.6666 33.8887H30.6666ZM28.3333 29.3332C29.622 29.3332 30.6666 30.3778 30.6666 31.6665H32.6666C32.6666 29.2733 30.7265 27.3332 28.3333 27.3332V29.3332ZM25 47.3332C12.6656 47.3332 2.66663 37.3342 2.66663 24.9998H0.666626C0.666626 38.4388 11.561 49.3332 25 49.3332V47.3332ZM47.3333 24.9998C47.3333 37.3342 37.3343 47.3332 25 47.3332V49.3332C38.4389 49.3332 49.3333 38.4388 49.3333 24.9998H47.3333ZM25 2.6665C37.3343 2.6665 47.3333 12.6655 47.3333 24.9998H49.3333C49.3333 11.5609 38.4389 0.666504 25 0.666504V2.6665ZM25 0.666504C11.561 0.666504 0.666626 11.5609 0.666626 24.9998H2.66663C2.66663 12.6655 12.6656 2.6665 25 2.6665V0.666504Z" fill="#D25F15"/>
</svg>
