<svg width="50" height="50" viewBox="0 0 50 50" fill="none" xmlns="http://www.w3.org/2000/svg">
<path d="M25 1.6665L25.5812 0.85277C25.2335 0.604415 24.7664 0.604415 24.4187 0.85277L25 1.6665ZM48.3333 18.3332H49.3333C49.3333 18.0102 49.1773 17.7071 48.9145 17.5194L48.3333 18.3332ZM48.3333 31.6665L48.9145 32.4802C49.1773 32.2925 49.3333 31.9895 49.3333 31.6665H48.3333ZM25 48.3332L24.4187 49.1469C24.7664 49.3953 25.2335 49.3953 25.5812 49.1469L25 48.3332ZM1.66663 31.6665H0.666626C0.666626 31.9895 0.822592 32.2925 1.08539 32.4802L1.66663 31.6665ZM1.66663 18.3332L1.08539 17.5194C0.822592 17.7071 0.666626 18.0102 0.666626 18.3332H1.66663ZM24.4187 2.48024L47.7521 19.1469L48.9145 17.5194L25.5812 0.85277L24.4187 2.48024ZM47.3333 18.3332V31.6665H49.3333V18.3332H47.3333ZM47.7521 30.8528L24.4187 47.5194L25.5812 49.1469L48.9145 32.4802L47.7521 30.8528ZM25.5812 47.5194L2.24786 30.8528L1.08539 32.4802L24.4187 49.1469L25.5812 47.5194ZM2.66663 31.6665V18.3332H0.666626V31.6665H2.66663ZM2.24786 19.1469L25.5812 2.48024L24.4187 0.85277L1.08539 17.5194L2.24786 19.1469ZM2.24786 32.4802L25.5812 15.8136L24.4187 14.1861L1.08539 30.8528L2.24786 32.4802ZM24.4187 15.8136L47.7521 32.4802L48.9145 30.8528L25.5812 14.1861L24.4187 15.8136ZM1.08539 19.1469L24.4187 35.8136L25.5812 34.1861L2.24786 17.5194L1.08539 19.1469ZM25.5812 35.8136L48.9145 19.1469L47.7521 17.5194L24.4187 34.1861L25.5812 35.8136ZM24 1.6665V14.9998H26V1.6665H24ZM24 34.9998V48.3332H26V34.9998H24Z" fill="#D25F15"/>
</svg>
