<svg width="50" height="50" viewBox="0 0 50 50" fill="none" xmlns="http://www.w3.org/2000/svg">
<path d="M11.6667 8.33317C13.5077 8.33317 15.0001 9.82555 15.0001 11.6665C15.0001 13.5074 13.5077 14.9998 11.6667 14.9998C9.8258 14.9998 8.33341 13.5074 8.33341 11.6665C8.33341 9.82555 9.8258 8.33317 11.6667 8.33317Z" stroke="#D25F15" stroke-width="2"/>
<path d="M38.3334 1.6665H11.6667C6.1439 1.6665 1.66675 6.14365 1.66675 11.6665C1.66675 17.1893 6.1439 21.6665 11.6667 21.6665H38.3334C43.8563 21.6665 48.3334 17.1893 48.3334 11.6665C48.3334 6.14365 43.8563 1.6665 38.3334 1.6665Z" stroke="#D25F15" stroke-width="2"/>
<path d="M38.3334 41.6665C36.4925 41.6665 35.0001 40.1741 35.0001 38.3332C35.0001 36.4922 36.4925 34.9998 38.3334 34.9998C40.1744 34.9998 41.6667 36.4922 41.6667 38.3332C41.6667 40.1741 40.1744 41.6665 38.3334 41.6665Z" stroke="#D25F15" stroke-width="2"/>
<path d="M11.6667 48.3332H38.3334C43.8563 48.3332 48.3334 43.856 48.3334 38.3332C48.3334 32.8103 43.8563 28.3332 38.3334 28.3332L11.6667 28.3332C6.1439 28.3332 1.66675 32.8103 1.66675 38.3332C1.66675 43.856 6.1439 48.3332 11.6667 48.3332Z" stroke="#D25F15" stroke-width="2"/>
</svg>
