<svg width="50" height="50" viewBox="0 0 50 50" fill="none" xmlns="http://www.w3.org/2000/svg">
<path fill-rule="evenodd" clip-rule="evenodd" d="M19.8133 1.6665L19.5266 3.12219L18.43 8.44873C16.6766 9.11829 15.0866 10.0678 13.65 11.1937L8.28996 9.40149L6.84999 8.95512L6.10332 10.2409L2.41329 16.4102L1.66663 17.6962L2.75997 18.6522L6.90665 22.1798C6.75665 23.1025 6.56332 24.0152 6.56332 24.9846C6.56332 25.9539 6.75665 26.8668 6.90665 27.7896L2.75997 31.3172L1.66663 32.2732L2.41329 33.559L6.10332 39.7284L6.84999 41.0175L8.28996 40.5679L13.65 38.7757C15.0866 39.9016 16.6766 40.8509 18.43 41.5204L19.5266 46.847L19.8133 48.3029H30.1833L30.4733 46.847L31.5666 41.5204C33.32 40.8509 34.91 39.9016 36.3466 38.7757L41.7067 40.5679L43.1466 41.0175L43.8966 39.7284L47.5833 33.559L48.3333 32.2732L47.2366 31.3172L43.09 27.7896C43.2433 26.8668 43.4333 25.9539 43.4333 24.9846C43.4333 24.0152 43.2433 23.1025 43.09 22.1798L47.2366 18.6522L48.3333 17.6962L47.5833 16.4102L43.8966 10.2409L43.1466 8.95512L41.7067 9.40149L36.3466 11.1937C34.91 10.0678 33.32 9.11829 31.5666 8.44873L30.4733 3.12219L30.1833 1.6665H19.8133Z" stroke="#D25F15" stroke-width="2" stroke-linecap="square" stroke-linejoin="round"/>
<path fill-rule="evenodd" clip-rule="evenodd" d="M31.6654 24.9846C31.6654 28.6622 28.6787 31.647 24.9987 31.647C21.3187 31.647 18.3321 28.6622 18.3321 24.9846C18.3321 21.307 21.3187 18.3224 24.9987 18.3224C28.6787 18.3224 31.6654 21.307 31.6654 24.9846Z" stroke="#D25F15" stroke-width="2" stroke-linecap="square" stroke-linejoin="round"/>
</svg>
