<svg width="50" height="50" viewBox="0 0 50 50" fill="none" xmlns="http://www.w3.org/2000/svg">
<path d="M13.3333 48.3332H36.6666M25 48.3332V31.6665M25 31.6665C32.3638 31.6665 38.3333 25.697 38.3333 18.3332V4.99984C38.3333 3.15889 36.8409 1.6665 35 1.6665H15C13.159 1.6665 11.6666 3.15889 11.6666 4.99984V18.3332C11.6666 25.697 17.6362 31.6665 25 31.6665ZM11.6666 8.33317H8.33329C4.65139 8.33317 1.66663 11.3179 1.66663 14.9998C1.66663 18.6817 4.65139 21.6665 8.33329 21.6665H11.6666M38.3333 8.33317H41.6666C45.3485 8.33317 48.3333 11.3179 48.3333 14.9998C48.3333 18.6817 45.3485 21.6665 41.6666 21.6665H38.3333" stroke="#D25F15" stroke-width="2"/>
</svg>
