<svg width="30" height="30" viewBox="0 0 30 30" fill="none" xmlns="http://www.w3.org/2000/svg">
<circle cx="15" cy="15" r="15" fill="white"/>
<g clip-path="url(#clip0)">
<path d="M23.8306 19.749C23.7796 19.6635 23.4637 18.977 21.9436 17.5662C20.3522 16.0888 20.566 16.3287 22.4827 13.7742C23.6501 12.2185 24.1169 11.2684 23.9708 10.8623C23.8318 10.4751 22.9732 10.5772 22.9732 10.5772L20.1182 10.5939C20.1182 10.5939 19.9069 10.5654 19.7489 10.6592C19.5957 10.7518 19.4971 10.9656 19.4971 10.9656C19.4971 10.9656 19.0447 12.1698 18.4414 13.1935C17.1695 15.3537 16.66 15.4677 16.4522 15.3335C15.9688 15.0212 16.09 14.0771 16.09 13.4073C16.09 11.3135 16.407 10.4407 15.4712 10.215C15.1601 10.1402 14.9321 10.0903 14.1376 10.082C13.1186 10.0713 12.2552 10.0856 11.7671 10.3243C11.4417 10.4834 11.1912 10.8385 11.3444 10.8587C11.5332 10.8836 11.9607 10.9739 12.1875 11.2827C12.4809 11.6805 12.4702 12.5759 12.4702 12.5759C12.4702 12.5759 12.6388 15.0402 12.0771 15.3466C11.6911 15.5568 11.1627 15.1281 10.0285 13.1674C9.44778 12.1638 9.00837 11.0535 9.00837 11.0535C9.00837 11.0535 8.92405 10.8468 8.77323 10.7364C8.59034 10.6022 8.33382 10.5594 8.33382 10.5594L5.619 10.576C5.619 10.576 5.21166 10.5879 5.06202 10.7649C4.92901 10.9228 5.05133 11.2482 5.05133 11.2482C5.05133 11.2482 7.17711 16.2206 9.58316 18.7276C11.7909 21.0256 14.2967 20.8748 14.2967 20.8748H15.432C15.432 20.8748 15.7752 20.8368 15.9498 20.648C16.1113 20.4746 16.1054 20.1492 16.1054 20.1492C16.1054 20.1492 16.0828 18.6255 16.7906 18.4011C17.4877 18.1802 18.3832 19.8737 19.3321 20.5257C20.0494 21.0185 20.5945 20.9104 20.5945 20.9104L23.1323 20.8748C23.1323 20.8748 24.4601 20.7929 23.8306 19.749Z" fill="#261104"/>
</g>
<defs>
<clipPath id="clip0">
<rect width="19" height="19" fill="white" transform="translate(5 6)"/>
</clipPath>
</defs>
</svg>
