<svg width="30" height="30" viewBox="0 0 30 30" fill="none" xmlns="http://www.w3.org/2000/svg">
<circle cx="15" cy="15" r="15" fill="white"/>
<g clip-path="url(#clip0)">
<path d="M20.5281 7.72583H8.8829C7.55266 7.72583 6.47021 8.81188 6.47021 10.1466V21.8306C6.47021 23.1653 7.55266 24.2513 8.8829 24.2513H20.5281C21.8584 24.2513 22.9408 23.1653 22.9408 21.8306V10.1466C22.9408 8.81188 21.8584 7.72583 20.5281 7.72583ZM14.7377 20.3136C12.343 20.3136 10.3948 18.359 10.3948 15.9563C10.3948 13.5536 12.343 11.599 14.7377 11.599C17.1324 11.599 19.0805 13.5536 19.0805 15.9563C19.0805 18.359 17.1324 20.3136 14.7377 20.3136ZM19.563 12.5673C18.7648 12.5673 18.1154 11.9157 18.1154 11.1148C18.1154 10.314 18.7648 9.66241 19.563 9.66241C20.3612 9.66241 21.0107 10.314 21.0107 11.1148C21.0107 11.9157 20.3612 12.5673 19.563 12.5673Z" fill="#261104"/>
<path d="M19.5629 10.6307C19.2966 10.6307 19.0803 10.8477 19.0803 11.1148C19.0803 11.382 19.2966 11.599 19.5629 11.599C19.8291 11.599 20.0454 11.382 20.0454 11.1148C20.0454 10.8477 19.8291 10.6307 19.5629 10.6307Z" fill="#261104"/>
<path d="M14.7376 12.5673C12.8753 12.5673 11.3599 14.0878 11.3599 15.9563C11.3599 17.8248 12.8753 19.3454 14.7376 19.3454C16.5999 19.3454 18.1154 17.8248 18.1154 15.9563C18.1154 14.0878 16.5999 12.5673 14.7376 12.5673Z" fill="#261104"/>
</g>
<defs>
<clipPath id="clip0">
<rect width="16.4706" height="16.5255" fill="white" transform="translate(6.47021 7.72583)"/>
</clipPath>
</defs>
</svg>
