<svg width="48" height="48" viewBox="0 0 48 48" fill="none" xmlns="http://www.w3.org/2000/svg">
<path d="M24 23.8113H23.5C23.5 23.9441 23.5528 24.0715 23.6468 24.1653L24 23.8113ZM24 46.5916C11.3884 46.5916 1.16663 36.3914 1.16663 23.8113H0.166626C0.166626 36.9459 10.8382 47.5916 24 47.5916V46.5916ZM46.8333 23.8113C46.8333 36.3914 36.6115 46.5916 24 46.5916V47.5916C37.1617 47.5916 47.8333 36.9459 47.8333 23.8113H46.8333ZM24 1.03101C36.6115 1.03101 46.8333 11.2312 46.8333 23.8113H47.8333C47.8333 10.6767 37.1617 0.0310059 24 0.0310059V1.03101ZM24 0.0310059C10.8382 0.0310059 0.166626 10.6767 0.166626 23.8113H1.16663C1.16663 11.2312 11.3884 1.03101 24 1.03101V0.0310059ZM23.5 8.8454V23.8113H24.5V8.8454H23.5ZM23.6468 24.1653L33.6468 34.1425L34.3531 33.4346L24.3531 23.4573L23.6468 24.1653Z" fill="#261104"/>
</svg>
