<svg width="48" height="48" viewBox="0 0 48 48" fill="none" xmlns="http://www.w3.org/2000/svg">
<path d="M24 0.844482L24.3249 0.464489C24.1378 0.30448 23.8621 0.30448 23.675 0.464489L24 0.844482ZM0.666626 20.799L0.341657 20.419L0.166626 20.5687V20.799H0.666626ZM17.3333 47.4051V47.9051C17.6094 47.9051 17.8333 47.6812 17.8333 47.4051H17.3333ZM30.6666 47.4051H30.1666C30.1666 47.6812 30.3905 47.9051 30.6666 47.9051V47.4051ZM47.3333 20.799H47.8333V20.5687L47.6583 20.419L47.3333 20.799ZM3.99996 47.9051H17.3333V46.9051H3.99996V47.9051ZM47.6583 20.419L24.3249 0.464489L23.675 1.22448L47.0083 21.179L47.6583 20.419ZM23.675 0.464489L0.341657 20.419L0.991595 21.179L24.3249 1.22448L23.675 0.464489ZM17.8333 47.4051V37.4278H16.8333V47.4051H17.8333ZM30.1666 37.4278V47.4051H31.1666V37.4278H30.1666ZM30.6666 47.9051H44V46.9051H30.6666V47.9051ZM47.8333 44.0793V20.799H46.8333V44.0793H47.8333ZM0.166626 20.799V44.0793H1.16663V20.799H0.166626ZM24 31.2763C27.4068 31.2763 30.1666 34.0315 30.1666 37.4278H31.1666C31.1666 33.4771 27.9569 30.2763 24 30.2763V31.2763ZM24 30.2763C20.043 30.2763 16.8333 33.4771 16.8333 37.4278H17.8333C17.8333 34.0315 20.5931 31.2763 24 31.2763V30.2763ZM44 47.9051C46.116 47.9051 47.8333 46.1933 47.8333 44.0793H46.8333C46.8333 45.6389 45.5658 46.9051 44 46.9051V47.9051ZM3.99996 46.9051C2.43408 46.9051 1.16663 45.6389 1.16663 44.0793H0.166626C0.166626 46.1933 1.88394 47.9051 3.99996 47.9051V46.9051Z" fill="#261104"/>
</svg>
