<svg width="35" height="35" viewBox="0 0 35 35" fill="none" xmlns="http://www.w3.org/2000/svg">
<path d="M15.5201 20.1751L15.8737 19.8216L15.1669 19.1143L14.8132 19.4677L15.5201 20.1751ZM21.6666 24.4852V24.9852H22.6666V24.4852H21.6666ZM22.6666 22.1533V21.6533H21.6666V22.1533H22.6666ZM21.6666 3.4989V3.9989H22.6666V3.4989H21.6666ZM22.6666 1.16699V0.666992H21.6666V1.16699H22.6666ZM10.5 12.3263H9.99996V13.3263H10.5V12.3263ZM12.8333 13.3263H13.3333V12.3263H12.8333V13.3263ZM31.5 12.3263H31V13.3263H31.5V12.3263ZM33.8333 13.3263H34.3333V12.3263H33.8333V13.3263ZM28.8132 5.47715L28.4595 5.83059L29.1664 6.53792L29.5201 6.18447L28.8132 5.47715ZM31.8534 3.85256L32.2071 3.49912L31.5002 2.79179L31.1465 3.14524L31.8534 3.85256ZM13.1867 3.14524L12.8331 2.79179L12.1262 3.49912L12.4798 3.85256L13.1867 3.14524ZM14.8132 6.18447L15.1668 6.53792L15.8737 5.83059L15.5201 5.47715L14.8132 6.18447ZM29.5201 19.4677L29.1664 19.1143L28.4595 19.8216L28.8132 20.1751L29.5201 19.4677ZM31.1465 22.507L31.5002 22.8604L32.2071 22.1531L31.8534 21.7997L31.1465 22.507ZM1.52006 34.166L15.5201 20.1751L14.8132 19.4677L0.813188 33.4586L1.52006 34.166ZM22.6666 24.4852V22.1533H21.6666V24.4852H22.6666ZM22.6666 3.4989V1.16699H21.6666V3.4989H22.6666ZM10.5 13.3263H12.8333V12.3263H10.5V13.3263ZM31.5 13.3263H33.8333V12.3263H31.5V13.3263ZM29.5201 6.18447L31.8534 3.85256L31.1465 3.14524L28.8132 5.47715L29.5201 6.18447ZM12.4798 3.85256L14.8132 6.18447L15.5201 5.47715L13.1867 3.14524L12.4798 3.85256ZM28.8132 20.1751L31.1465 22.507L31.8534 21.7997L29.5201 19.4677L28.8132 20.1751Z" fill="#261104"/>
</svg>
