<svg width="35" height="35" viewBox="0 0 35 35" fill="none" xmlns="http://www.w3.org/2000/svg">
<path d="M17.5 1.16699L17.748 0.732871L17.5 0.591117L17.2519 0.732871L17.5 1.16699ZM1.16663 10.5003L0.918557 10.0662L0.666626 10.2102V10.5003H1.16663ZM33.8333 10.5003H34.3333V10.2102L34.0814 10.0662L33.8333 10.5003ZM17.5 33.8337L17.3626 34.3144L17.5 34.3537L17.6373 34.3144L17.5 33.8337ZM16.3333 23.3337L16.0132 23.7178L16.4051 24.0443L16.7237 23.646L16.3333 23.3337ZM17.2519 0.732871L0.918557 10.0662L1.4147 10.9344L17.748 1.60111L17.2519 0.732871ZM0.666626 10.5003V12.1801H1.66663V10.5003H0.666626ZM34.3333 12.1801V10.5003H33.3333V12.1801H34.3333ZM34.0814 10.0662L17.748 0.732871L17.2519 1.60111L33.5852 10.9344L34.0814 10.0662ZM17.6373 34.3144C27.5199 31.4908 34.3333 22.4581 34.3333 12.1801H33.3333C33.3333 22.0116 26.8158 30.652 17.3626 33.3529L17.6373 34.3144ZM0.666626 12.1801C0.666626 22.4581 7.48005 31.4908 17.3626 34.3144L17.6373 33.3529C8.18407 30.652 1.66663 22.0116 1.66663 12.1801H0.666626ZM9.0132 17.8844L16.0132 23.7178L16.6534 22.9495L9.65338 17.1162L9.0132 17.8844ZM16.7237 23.646L26.0571 11.9793L25.2762 11.3546L15.9429 23.0213L16.7237 23.646Z" fill="#261104"/>
</svg>
