<svg width="29" height="35" viewBox="0 0 29 35" fill="none" xmlns="http://www.w3.org/2000/svg">
<path d="M5.16667 0L5.16667 19.8333M5.16667 19.8333C2.58934 19.8333 0.5 21.9227 0.5 24.5C0.5 27.0773 2.58934 29.1667 5.16667 29.1667M5.16667 19.8333C7.74399 19.8333 9.83333 21.9227 9.83333 24.5C9.83333 27.0773 7.74399 29.1667 5.16667 29.1667M5.16667 29.1667V35M23.8333 0L23.8333 5.83333M23.8333 5.83333C21.256 5.83333 19.1667 7.92267 19.1667 10.5C19.1667 13.0773 21.256 15.1667 23.8333 15.1667M23.8333 5.83333C26.4107 5.83333 28.5 7.92267 28.5 10.5C28.5 13.0773 26.4107 15.1667 23.8333 15.1667M23.8333 15.1667V35" stroke="#261104"/>
</svg>
