<svg width="35" height="35" viewBox="0 0 35 35" fill="none" xmlns="http://www.w3.org/2000/svg">
<path d="M5.83329 22.167C5.83329 15.7237 11.0566 10.5003 17.5 10.5003C23.9433 10.5003 29.1666 15.7237 29.1666 22.167C29.1666 28.6103 23.9433 33.8337 17.5 33.8337C11.0566 33.8337 5.83329 28.6103 5.83329 22.167Z" stroke="#261104"/>
<path d="M1.16663 12.8337C1.16663 6.39034 6.38997 1.16699 12.8333 1.16699C19.2766 1.16699 24.5 6.39034 24.5 12.8337C24.5 19.277 19.2766 24.5003 12.8333 24.5003C6.38997 24.5003 1.16663 19.277 1.16663 12.8337Z" stroke="#261104"/>
<path d="M10.5 12.8337C10.5 6.39034 15.7233 1.16699 22.1666 1.16699C28.6099 1.16699 33.8333 6.39034 33.8333 12.8337C33.8333 19.277 28.6099 24.5003 22.1666 24.5003C15.7233 24.5003 10.5 19.277 10.5 12.8337Z" stroke="#261104"/>
</svg>
