<svg width="43" height="58" viewBox="0 0 43 58" fill="none" xmlns="http://www.w3.org/2000/svg">
<path d="M-7.09999 22.5003L12.3667 22.5003M24.5333 5.46693L12.3667 22.478L24.5333 39.5336M41.5667 -1.83942C41.5667 3.52988 37.2061 7.88757 31.8333 7.88757C26.4605 7.88757 22.1 3.52988 22.1 -1.83942C22.1 -7.20872 26.4605 -11.5664 31.8333 -11.5664C37.2061 -11.5664 41.5667 -7.20872 41.5667 -1.83942ZM41.5667 46.7955C41.5667 52.1648 37.2061 56.5225 31.8333 56.5225C26.4605 56.5225 22.1 52.1648 22.1 46.7955C22.1 41.4262 26.4605 37.0685 31.8333 37.0685C37.2061 37.0685 41.5667 41.4262 41.5667 46.7955ZM-7.09999 22.478C-7.09999 27.8473 -11.4605 32.205 -16.8333 32.205C-22.2061 32.205 -26.5667 27.8473 -26.5667 22.478C-26.5667 17.1087 -22.2061 12.751 -16.8333 12.751C-11.4605 12.751 -7.09999 17.1087 -7.09999 22.478Z" stroke="#D25F15" stroke-linecap="square"/>
</svg>
