<svg width="52" height="64" viewBox="0 0 52 64" fill="none" xmlns="http://www.w3.org/2000/svg">
<path d="M-7.83332 38.2336C-7.83332 24.7947 3.06109 13.9003 16.5 13.9003C29.9389 13.9003 40.8333 24.7947 40.8333 38.2336C40.8333 51.6725 29.9389 62.5669 16.5 62.5669C3.06109 62.5669 -7.83332 51.6725 -7.83332 38.2336Z" stroke="#D25F15"/>
<path d="M-17.5667 18.7669C-17.5667 5.328 -6.67225 -5.56641 6.76668 -5.56641C20.2056 -5.56641 31.1 5.328 31.1 18.7669C31.1 32.2058 20.2056 43.1003 6.76668 43.1003C-6.67225 43.1003 -17.5667 32.2058 -17.5667 18.7669Z" stroke="#D25F15"/>
<path d="M1.90001 18.7669C1.90001 5.328 12.7944 -5.56641 26.2333 -5.56641C39.6723 -5.56641 50.5667 5.328 50.5667 18.7669C50.5667 32.2058 39.6723 43.1003 26.2333 43.1003C12.7944 43.1003 1.90001 32.2058 1.90001 18.7669Z" stroke="#D25F15"/>
</svg>
