<svg width="35" height="35" viewBox="0 0 35 35" fill="none" xmlns="http://www.w3.org/2000/svg">
<path fill-rule="evenodd" clip-rule="evenodd" d="M35 17.4999L34.9974 17.5L34.9895 17.5001L34.9764 17.5004L34.958 17.5011L34.9345 17.5021L34.9057 17.5037L34.8717 17.5059L34.8326 17.5089L34.7884 17.5126L34.739 17.5173L34.6846 17.5231L34.6252 17.53L34.5607 17.5381L34.4914 17.5475L34.4171 17.5583L34.338 17.5707L34.2541 17.5847L34.1654 17.6004L34.0721 17.6178L33.9742 17.6372L33.8718 17.6585L33.7649 17.6818L33.6536 17.7073L33.538 17.735L33.4181 17.7649L33.2941 17.7973L33.166 17.832L33.034 17.8693L32.8981 17.9091L32.7583 17.9516L32.6149 17.9967L32.4679 18.0447L32.3173 18.0954L32.1634 18.149L32.0061 18.2055L31.8457 18.265L31.6822 18.3275L31.5157 18.393L31.3463 18.4616L31.1742 18.5334L30.9995 18.6083L30.8222 18.6864L30.6426 18.7677L30.4606 18.8523L30.2765 18.9401L30.0904 19.0312L29.9023 19.1255L29.7124 19.2232L29.5208 19.3241L29.3277 19.4284L29.1332 19.5359L28.9373 19.6467L28.7403 19.7609L28.5422 19.8783L28.3432 19.9989L28.1434 20.1228L27.9429 20.2499L27.7418 20.3802L27.5403 20.5137L27.3385 20.6503L27.1365 20.79L26.9344 20.9327L26.7324 21.0785L26.5306 21.2272L26.329 21.3788L26.1279 21.5333L25.9273 21.6906L25.7274 21.8507L25.5282 22.0134L25.3298 22.1788L25.1325 22.3467L24.9362 22.5171L24.7412 22.6899L24.5475 22.865L24.3551 23.0424L24.1643 23.222L23.9751 23.4036L23.7876 23.5872L23.6019 23.7728L23.4182 23.9601L23.2364 24.1492L23.0566 24.3399L22.8791 24.5321L22.7038 24.7257L22.5308 24.9207L22.3602 25.1168L22.1921 25.3141L22.0265 25.5123L21.8636 25.7115L21.7033 25.9114L21.5458 26.1119L21.391 26.313L21.2392 26.5145L21.0902 26.7163L20.9442 26.9183L20.8013 27.1204L20.6613 27.3224L20.5245 27.5243L20.3908 27.7258L20.2602 27.9269L20.1329 28.1274L20.0087 28.3273L19.8878 28.5264L19.7701 28.7246L19.6557 28.9217L19.5446 29.1176L19.4368 29.3123L19.3323 29.5055L19.2311 29.6972L19.1332 29.8872L19.0386 30.0755L18.9472 30.2618L18.8592 30.446L18.7744 30.6282L18.6928 30.808L18.6144 30.9855L18.5393 31.1604L18.4673 31.3327L18.3984 31.5023L18.3326 31.669L18.2699 31.8328L18.2102 31.9935L18.1534 32.151L18.0996 32.3052L18.0486 32.456L18.0005 32.6033L17.9551 32.7471L17.9124 32.8871L17.8724 33.0233L17.8349 33.1557L17.8 33.2841L17.7675 33.4084L17.7373 33.5286L17.7094 33.6445L17.6838 33.7562L17.6603 33.8634L17.6388 33.9662L17.6193 34.0645L17.6017 34.1582L17.5859 34.2472L17.5718 34.3315L17.5593 34.411L17.5483 34.4856L17.5388 34.5554L17.5306 34.6202L17.5236 34.6801L17.5178 34.7349L17.513 34.7846L17.5092 34.8293L17.5062 34.8688L17.5039 34.9032L17.5023 34.9324L17.5012 34.9564L17.5005 34.9751L17.5001 34.9887L17.5 34.997L17.4998 34.9903L17.4995 34.9776L17.4989 34.9597L17.4979 34.9366L17.4963 34.9082L17.4942 34.8747L17.4913 34.8359L17.4876 34.7921L17.483 34.7432L17.4773 34.6891L17.4705 34.6301L17.4625 34.5661L17.4532 34.4971L17.4425 34.4232L17.4302 34.3444L17.4164 34.2609L17.4009 34.1727L17.3835 34.0797L17.3644 33.9822L17.3432 33.8801L17.32 33.7736L17.2947 33.6626L17.2672 33.5473L17.2374 33.4278L17.2053 33.3041L17.1707 33.1764L17.1337 33.0447L17.0941 32.909L17.0518 32.7696L17.0069 32.6265L16.9592 32.4797L16.9087 32.3294L16.8553 32.1758L16.799 32.0188L16.7398 31.8586L16.6775 31.6953L16.6122 31.5291L16.5439 31.3599L16.4724 31.188L16.3977 31.0135L16.3198 30.8364L16.2388 30.657L16.1545 30.4752L16.0669 30.2913L15.9761 30.1053L15.882 29.9173L15.7846 29.7276L15.684 29.5362L15.58 29.3432L15.4727 29.1487L15.3621 28.953L15.2482 28.7561L15.1311 28.558L15.0107 28.3591L14.8871 28.1593L14.7602 27.9589L14.6302 27.7578L14.4969 27.5564L14.3606 27.3546L14.2212 27.1526L14.0787 26.9505L13.9332 26.7485L13.7847 26.5466L13.6333 26.3451L13.479 26.1439L13.3219 25.9433L13.1621 25.7432L12.9996 25.544L12.8344 25.3456L12.6667 25.1482L12.4965 24.9518L12.3239 24.7567L12.1489 24.5628L11.9717 24.3704L11.7923 24.1794L11.6109 23.9901L11.4274 23.8025L11.242 23.6166L11.0548 23.4327L10.8659 23.2507L10.6753 23.0709L10.4832 22.8931L10.2897 22.7176L10.0948 22.5444L9.89877 22.3737L9.7016 22.2053L9.50342 22.0396L9.30436 21.8764L9.10452 21.7159L8.90401 21.5582L8.70296 21.4032L8.50147 21.2511L8.29967 21.102L8.09768 20.9557L7.89561 20.8125L7.69359 20.6723L7.49174 20.5352L7.29018 20.4013L7.08904 20.2705L6.88843 20.1429L6.68849 20.0184L6.48934 19.8973L6.29109 19.7794L6.09389 19.6647L5.89785 19.5533L5.70309 19.4453L5.50974 19.3405L5.31793 19.239L5.12778 19.1408L4.9394 19.046L4.75293 18.9544L4.56849 18.866L4.38619 18.781L4.20616 18.6991L4.02851 18.6205L3.85336 18.5451L3.68082 18.4728L3.51102 18.4037L3.34407 18.3377L3.18007 18.2747L3.01914 18.2148L2.86138 18.1578L2.70691 18.1037L2.55582 18.0525L2.40822 18.0042L2.2642 17.9586L2.12387 17.9157L1.98733 17.8755L1.85465 17.8378L1.72595 17.8026L1.6013 17.7699L1.48078 17.7396L1.36449 17.7115L1.2525 17.6857L1.14489 17.662L1.04173 17.6404L0.943099 17.6208L0.84906 17.603L0.759679 17.5871L0.675018 17.5728L0.595136 17.5602L0.520088 17.5491L0.449927 17.5395L0.384702 17.5312L0.324457 17.5241L0.269236 17.5182L0.219076 17.5133L0.174012 17.5094L0.134077 17.5063L0.0992969 17.504L0.0696974 17.5023L0.0452989 17.5012L0.0261182 17.5005L0.012169 17.5001L0.00346087 17.5L0 17.4999L0.00178878 17.4999L0.00882597 17.4998L0.0211066 17.4995L0.0386222 17.4989L0.0613604 17.498L0.0893053 17.4965L0.122437 17.4943L0.160733 17.4915L0.204167 17.4879L0.252707 17.4833L0.30632 17.4778L0.364969 17.4711L0.428613 17.4632L0.497207 17.454L0.570703 17.4434L0.649051 17.4312L0.732196 17.4175L0.820081 17.4021L0.912643 17.385L1.00982 17.3659L1.11154 17.3449L1.21774 17.3219L1.32835 17.2968L1.44328 17.2695L1.56245 17.2399L1.6858 17.2079L1.81322 17.1735L1.94464 17.1367L2.07996 17.0973L2.2191 17.0552L2.36195 17.0105L2.50842 16.963L2.65841 16.9127L2.81182 16.8596L2.96854 16.8036L3.12847 16.7446L3.2915 16.6826L3.45753 16.6175L3.62644 16.5494L3.79811 16.4781L3.97244 16.4037L4.1493 16.3261L4.32859 16.2453L4.51018 16.1613L4.69396 16.074L4.8798 15.9834L5.06757 15.8896L5.25717 15.7925L5.44847 15.6921L5.64134 15.5883L5.83566 15.4813L6.03131 15.371L6.22816 15.2574L6.42608 15.1405L6.62496 15.0204L6.82467 14.897L7.02507 14.7704L7.22606 14.6406L7.4275 14.5076L7.62927 14.3715L7.83125 14.2323L8.03331 14.0901L8.23534 13.9448L8.43722 13.7966L8.63882 13.6454L8.84002 13.4913L9.04072 13.3345L9.24078 13.1749L9.44011 13.0125L9.63858 12.8476L9.83608 12.6801L10.0325 12.5101L10.2278 12.3377L10.4217 12.1629L10.6143 11.9859L10.8053 11.8067L10.9948 11.6253L11.1826 11.442L11.3685 11.2568L11.5526 11.0697L11.7348 10.8809L11.9148 10.6905L12.0927 10.4985L12.2684 10.3051L12.4418 10.1103L12.6127 9.91437L12.7813 9.71728L12.9472 9.51918L13.1106 9.32018L13.2713 9.1204L13.4293 8.91994L13.5844 8.71892L13.7368 8.51747L13.8862 8.31569L14.0326 8.11371L14.1761 7.91164L14.3165 7.70961L14.4539 7.50774L14.5881 7.30615L14.7191 7.10497L14.847 6.90432L14.9717 6.70432L15.0931 6.5051L15.2113 6.30678L15.3262 6.10949L15.4378 5.91335L15.5462 5.71848L15.6512 5.52502L15.7529 5.33308L15.8514 5.14279L15.9465 4.95427L16.0384 4.76764L16.127 4.58303L16.2123 4.40056L16.2944 4.22034L16.3732 4.04249L16.4489 3.86714L16.5214 3.69439L16.5908 3.52437L16.6571 3.35718L16.7203 3.19295L16.7805 3.03177L16.8377 2.87375L16.892 2.71901L16.9434 2.56765L16.992 2.41976L17.0378 2.27546L17.0809 2.13483L17.1213 1.99798L17.1592 1.865L17.1946 1.73597L17.2275 1.61099L17.258 1.49015L17.2862 1.37351L17.3122 1.26118L17.3361 1.15322L17.3578 1.0497L17.3776 0.950706L17.3955 0.856298L17.4116 0.766543L17.426 0.681504L17.4388 0.601239L17.45 0.525804L17.4597 0.455252L17.4681 0.389632L17.4753 0.328989L17.4813 0.273366L17.4862 0.222801L17.4902 0.17733L17.4933 0.136985L17.4957 0.101794L17.4975 0.0717812L17.4986 0.0469677L17.4994 0.0273709L17.4998 0.0130046L17.4999 0.00387887L17.5 0L17.5 0.00137074L17.5001 0.00799014L17.5003 0.0198536L17.5009 0.0369527L17.5019 0.0592756L17.5033 0.0868066L17.5054 0.119527L17.5081 0.157412L17.5117 0.200438L17.5162 0.248573L17.5216 0.301784L17.5282 0.360033L17.536 0.423281L17.5451 0.491482L17.5556 0.564591L17.5676 0.642554L17.5812 0.72532L17.5965 0.812829L17.6135 0.905022L17.6324 1.00183L17.6532 1.1032L17.6761 1.20904L17.701 1.3193L17.7282 1.43389L17.7576 1.55273L17.7894 1.67575L17.8235 1.80285L17.8602 1.93395L17.8994 2.06897L17.9412 2.2078L17.9857 2.35036L18.033 2.49655L18.083 2.64626L18.1359 2.7994L18.1918 2.95587L18.2505 3.11555L18.3123 3.27834L18.3771 3.44413L18.445 3.61281L18.516 3.78427L18.5901 3.95839L18.6675 4.13506L18.748 4.31416L18.8318 4.49557L18.9188 4.67918L19.0091 4.86485L19.1027 5.05248L19.1996 5.24194L19.2997 5.43311L19.4032 5.62586L19.5099 5.82007L19.62 6.01562L19.7333 6.21238L19.85 6.41022L19.9698 6.60903L20.093 6.80867L20.2193 7.00903L20.3488 7.20997L20.4816 7.41138L20.6174 7.61313L20.7564 7.8151L20.8984 8.01716L21.0434 8.2192L21.1914 8.42109L21.3424 8.62272L21.4962 8.82396L21.6528 9.0247L21.8122 9.22482L21.9743 9.42421L22.1391 9.62275L22.3064 9.82034L22.4762 10.0169L22.6484 10.2122L22.823 10.4063L22.9998 10.5989L23.1789 10.7901L23.36 10.9797L23.5432 11.1676L23.7283 11.3537L23.9152 11.538L24.1039 11.7203L24.2942 11.9005L24.486 12.0786L24.6793 12.2544L24.874 12.428L25.0699 12.5992L25.2669 12.7679L25.4649 12.9341L25.6638 13.0976L25.8635 13.2586L26.0639 13.4167L26.2649 13.5721L26.4664 13.7247L26.6681 13.8743L26.8701 14.021L27.0721 14.1647L27.2742 14.3054L27.4761 14.443L27.6777 14.5775L27.8789 14.7088L28.0796 14.8369L28.2796 14.9618L28.4789 15.0835L28.6773 15.202L28.8747 15.3171L29.0709 15.429L29.2659 15.5376L29.4595 15.6429L29.6516 15.7449L29.842 15.8436L30.0307 15.939L30.2174 16.0311L30.4022 16.12L30.5849 16.2056L30.7653 16.2879L30.9433 16.367L31.1189 16.443L31.2918 16.5157L31.4621 16.5853L31.6295 16.6519L31.7939 16.7153L31.9554 16.7758L32.1136 16.8332L32.2687 16.8877L32.4203 16.9394L32.5684 16.9882L32.713 17.0342L32.854 17.0775L32.9911 17.1182L33.1244 17.1562L33.2538 17.1918L33.3791 17.2249L33.5002 17.2556L33.6172 17.284L33.7299 17.3102L33.8382 17.3342L33.9421 17.3561L34.0414 17.3761L34.1362 17.3941L34.2263 17.4104L34.3118 17.4249L34.3924 17.4378L34.4682 17.4491L34.5392 17.459L34.6052 17.4675L34.6662 17.4747L34.7222 17.4808L34.7732 17.4858L34.8191 17.4899L34.8598 17.4931L34.8954 17.4955L34.9259 17.4973L34.9511 17.4985L34.9711 17.4993L34.9859 17.4997L34.9954 17.4999L35 17.4999Z" fill="#D25F15"/>
</svg>
